%TF.GenerationSoftware,KiCad,Pcbnew,9.0.6*%
%TF.CreationDate,2026-01-01T04:38:27-06:00*%
%TF.ProjectId,2040Listener,32303430-4c69-4737-9465-6e65722e6b69,rev?*%
%TF.SameCoordinates,Original*%
%TF.FileFunction,Soldermask,Top*%
%TF.FilePolarity,Negative*%
%FSLAX46Y46*%
G04 Gerber Fmt 4.6, Leading zero omitted, Abs format (unit mm)*
G04 Created by KiCad (PCBNEW 9.0.6) date 2026-01-01 04:38:27*
%MOMM*%
%LPD*%
G01*
G04 APERTURE LIST*
G04 Aperture macros list*
%AMRoundRect*
0 Rectangle with rounded corners*
0 $1 Rounding radius*
0 $2 $3 $4 $5 $6 $7 $8 $9 X,Y pos of 4 corners*
0 Add a 4 corners polygon primitive as box body*
4,1,4,$2,$3,$4,$5,$6,$7,$8,$9,$2,$3,0*
0 Add four circle primitives for the rounded corners*
1,1,$1+$1,$2,$3*
1,1,$1+$1,$4,$5*
1,1,$1+$1,$6,$7*
1,1,$1+$1,$8,$9*
0 Add four rect primitives between the rounded corners*
20,1,$1+$1,$2,$3,$4,$5,0*
20,1,$1+$1,$4,$5,$6,$7,0*
20,1,$1+$1,$6,$7,$8,$9,0*
20,1,$1+$1,$8,$9,$2,$3,0*%
G04 Aperture macros list end*
%ADD10R,1.500000X1.500000*%
%ADD11C,1.500000*%
%ADD12C,3.900000*%
%ADD13C,1.100000*%
%ADD14RoundRect,0.140000X-0.140000X-0.170000X0.140000X-0.170000X0.140000X0.170000X-0.140000X0.170000X0*%
%ADD15RoundRect,0.144000X1.456000X-1.456000X1.456000X1.456000X-1.456000X1.456000X-1.456000X-1.456000X0*%
%ADD16RoundRect,0.050000X0.050000X-0.387500X0.050000X0.387500X-0.050000X0.387500X-0.050000X-0.387500X0*%
%ADD17RoundRect,0.050000X0.387500X-0.050000X0.387500X0.050000X-0.387500X0.050000X-0.387500X-0.050000X0*%
%ADD18RoundRect,0.250000X0.450000X-0.262500X0.450000X0.262500X-0.450000X0.262500X-0.450000X-0.262500X0*%
%ADD19R,0.990600X0.711200*%
%ADD20RoundRect,0.250000X-0.262500X-0.450000X0.262500X-0.450000X0.262500X0.450000X-0.262500X0.450000X0*%
%ADD21RoundRect,0.250000X0.475000X-0.250000X0.475000X0.250000X-0.475000X0.250000X-0.475000X-0.250000X0*%
%ADD22RoundRect,0.250000X0.250000X0.475000X-0.250000X0.475000X-0.250000X-0.475000X0.250000X-0.475000X0*%
%ADD23RoundRect,0.096750X0.290250X-0.990250X0.290250X0.990250X-0.290250X0.990250X-0.290250X-0.990250X0*%
%ADD24RoundRect,0.250000X-0.450000X-0.350000X0.450000X-0.350000X0.450000X0.350000X-0.450000X0.350000X0*%
%ADD25RoundRect,0.375000X-0.625000X-0.375000X0.625000X-0.375000X0.625000X0.375000X-0.625000X0.375000X0*%
%ADD26RoundRect,0.500000X-0.500000X-1.400000X0.500000X-1.400000X0.500000X1.400000X-0.500000X1.400000X0*%
%ADD27RoundRect,0.250000X0.262500X0.450000X-0.262500X0.450000X-0.262500X-0.450000X0.262500X-0.450000X0*%
%ADD28C,1.498600*%
%ADD29C,2.819400*%
%ADD30RoundRect,0.250000X-0.250000X-0.475000X0.250000X-0.475000X0.250000X0.475000X-0.250000X0.475000X0*%
%ADD31RoundRect,0.243750X-0.243750X-0.456250X0.243750X-0.456250X0.243750X0.456250X-0.243750X0.456250X0*%
%ADD32RoundRect,0.250000X-0.475000X0.250000X-0.475000X-0.250000X0.475000X-0.250000X0.475000X0.250000X0*%
G04 APERTURE END LIST*
D10*
%TO.C,J2*%
X104375000Y-63850000D03*
D11*
X104375000Y-66350000D03*
X104375000Y-68350000D03*
X104375000Y-70850000D03*
D12*
X102275000Y-61350000D03*
X102275000Y-73350000D03*
D13*
X102275000Y-65100000D03*
X102275000Y-69600000D03*
%TD*%
D14*
%TO.C,C14*%
X157020000Y-63750000D03*
X157980000Y-63750000D03*
%TD*%
D15*
%TO.C,U1*%
X146275000Y-66725000D03*
D16*
X143675000Y-70162500D03*
X144075000Y-70162500D03*
X144475000Y-70162500D03*
X144875000Y-70162500D03*
X145275000Y-70162500D03*
X145675000Y-70162500D03*
X146075000Y-70162500D03*
X146475000Y-70162500D03*
X146875000Y-70162500D03*
X147275000Y-70162500D03*
X147675000Y-70162500D03*
X148075000Y-70162500D03*
X148475000Y-70162500D03*
X148875000Y-70162500D03*
D17*
X149712500Y-69325000D03*
X149712500Y-68925000D03*
X149712500Y-68525000D03*
X149712500Y-68125000D03*
X149712500Y-67725000D03*
X149712500Y-67325000D03*
X149712500Y-66925000D03*
X149712500Y-66525000D03*
X149712500Y-66125000D03*
X149712500Y-65725000D03*
X149712500Y-65325000D03*
X149712500Y-64925000D03*
X149712500Y-64525000D03*
X149712500Y-64125000D03*
D16*
X148875000Y-63287500D03*
X148475000Y-63287500D03*
X148075000Y-63287500D03*
X147675000Y-63287500D03*
X147275000Y-63287500D03*
X146875000Y-63287500D03*
X146475000Y-63287500D03*
X146075000Y-63287500D03*
X145675000Y-63287500D03*
X145275000Y-63287500D03*
X144875000Y-63287500D03*
X144475000Y-63287500D03*
X144075000Y-63287500D03*
X143675000Y-63287500D03*
D17*
X142837500Y-64125000D03*
X142837500Y-64525000D03*
X142837500Y-64925000D03*
X142837500Y-65325000D03*
X142837500Y-65725000D03*
X142837500Y-66125000D03*
X142837500Y-66525000D03*
X142837500Y-66925000D03*
X142837500Y-67325000D03*
X142837500Y-67725000D03*
X142837500Y-68125000D03*
X142837500Y-68525000D03*
X142837500Y-68925000D03*
X142837500Y-69325000D03*
%TD*%
D18*
%TO.C,R8*%
X147000000Y-73912500D03*
X147000000Y-72087500D03*
%TD*%
%TO.C,R7*%
X144750000Y-73912500D03*
X144750000Y-72087500D03*
%TD*%
D19*
%TO.C,SW2*%
X162500001Y-54824999D03*
X157999999Y-54824999D03*
X162500001Y-52675001D03*
X157999999Y-52675001D03*
%TD*%
D20*
%TO.C,R6*%
X160587500Y-59000000D03*
X162412500Y-59000000D03*
%TD*%
D21*
%TO.C,C2*%
X143500000Y-59350000D03*
X143500000Y-61250000D03*
%TD*%
D22*
%TO.C,C5*%
X140150000Y-61600000D03*
X138250000Y-61600000D03*
%TD*%
D23*
%TO.C,U4*%
X120695000Y-76875000D03*
X121965000Y-76875000D03*
X123235000Y-76875000D03*
X124505000Y-76875000D03*
X124505000Y-71925000D03*
X123235000Y-71925000D03*
X121965000Y-71925000D03*
X120695000Y-71925000D03*
%TD*%
D19*
%TO.C,SW1*%
X134050001Y-76274999D03*
X129549999Y-76274999D03*
X134050001Y-74125001D03*
X129549999Y-74125001D03*
%TD*%
D24*
%TO.C,Y1*%
X156400000Y-67850000D03*
X158600000Y-67850000D03*
X158600000Y-66150000D03*
X156400000Y-66150000D03*
%TD*%
D25*
%TO.C,U2*%
X115850000Y-57300000D03*
D26*
X122150000Y-55000000D03*
D25*
X115850000Y-55000000D03*
X115850000Y-52700000D03*
%TD*%
D20*
%TO.C,R5*%
X152587500Y-66000000D03*
X154412500Y-66000000D03*
%TD*%
D27*
%TO.C,R4*%
X139912500Y-77250000D03*
X138087500Y-77250000D03*
%TD*%
%TO.C,R3*%
X139912500Y-73750000D03*
X138087500Y-73750000D03*
%TD*%
D20*
%TO.C,R2*%
X135787500Y-66200000D03*
X137612500Y-66200000D03*
%TD*%
%TO.C,R1*%
X135787500Y-68600000D03*
X137612500Y-68600000D03*
%TD*%
D28*
%TO.C,J1*%
X165929700Y-70492500D03*
X165929700Y-67992500D03*
X165929700Y-65992499D03*
X165929700Y-63492501D03*
D29*
X168639700Y-73562500D03*
X168639700Y-60422500D03*
%TD*%
D21*
%TO.C,C17*%
X118000000Y-73450000D03*
X118000000Y-71550000D03*
%TD*%
D30*
%TO.C,C16*%
X125300000Y-55000000D03*
X127200000Y-55000000D03*
%TD*%
D22*
%TO.C,C15*%
X111950000Y-55000000D03*
X110050000Y-55000000D03*
%TD*%
D31*
%TO.C,C13*%
X156562500Y-70250000D03*
X158437500Y-70250000D03*
%TD*%
D21*
%TO.C,C12*%
X148500000Y-61250000D03*
X148500000Y-59350000D03*
%TD*%
%TO.C,C11*%
X146000000Y-61250000D03*
X146000000Y-59350000D03*
%TD*%
D32*
%TO.C,C10*%
X153750000Y-72050000D03*
X153750000Y-73950000D03*
%TD*%
D30*
%TO.C,C9*%
X150950000Y-60100000D03*
X152850000Y-60100000D03*
%TD*%
D32*
%TO.C,C8*%
X151500000Y-72050000D03*
X151500000Y-73950000D03*
%TD*%
%TO.C,C7*%
X149250000Y-72050000D03*
X149250000Y-73950000D03*
%TD*%
%TO.C,C6*%
X142500000Y-72050000D03*
X142500000Y-73950000D03*
%TD*%
D30*
%TO.C,C4*%
X152550000Y-63800000D03*
X154450000Y-63800000D03*
%TD*%
D22*
%TO.C,C3*%
X140150000Y-64000000D03*
X138250000Y-64000000D03*
%TD*%
%TO.C,C1*%
X140200000Y-59250000D03*
X138300000Y-59250000D03*
%TD*%
M02*
