%TF.GenerationSoftware,KiCad,Pcbnew,9.0.6*%
%TF.CreationDate,2026-03-13T18:10:13-05:00*%
%TF.ProjectId,2040Listener,32303430-4c69-4737-9465-6e65722e6b69,rev?*%
%TF.SameCoordinates,Original*%
%TF.FileFunction,Copper,L2,Bot*%
%TF.FilePolarity,Positive*%
%FSLAX46Y46*%
G04 Gerber Fmt 4.6, Leading zero omitted, Abs format (unit mm)*
G04 Created by KiCad (PCBNEW 9.0.6) date 2026-03-13 18:10:13*
%MOMM*%
%LPD*%
G01*
G04 APERTURE LIST*
%TA.AperFunction,ComponentPad*%
%ADD10C,0.600000*%
%TD*%
%TA.AperFunction,ComponentPad*%
%ADD11C,3.900000*%
%TD*%
%TA.AperFunction,ComponentPad*%
%ADD12C,1.500000*%
%TD*%
%TA.AperFunction,ComponentPad*%
%ADD13R,1.500000X1.500000*%
%TD*%
%TA.AperFunction,ComponentPad*%
%ADD14C,1.498600*%
%TD*%
%TA.AperFunction,ComponentPad*%
%ADD15C,2.819400*%
%TD*%
%TA.AperFunction,ViaPad*%
%ADD16C,0.600000*%
%TD*%
%TA.AperFunction,Conductor*%
%ADD17C,0.200000*%
%TD*%
G04 APERTURE END LIST*
D10*
%TO.P,U1,57,GND*%
%TO.N,GND*%
X145000000Y-68000000D03*
X146275000Y-68000000D03*
X147550000Y-68000000D03*
X145000000Y-66725000D03*
X146275000Y-66725000D03*
X147550000Y-66725000D03*
X145000000Y-65450000D03*
X146275000Y-65450000D03*
X147550000Y-65450000D03*
%TD*%
D11*
%TO.P,J2,*%
%TO.N,*%
X101500000Y-73300000D03*
X101500000Y-61300000D03*
D12*
%TO.P,J2,1,5V*%
%TO.N,VBUS*%
X103600000Y-63800000D03*
%TO.P,J2,2,D-*%
%TO.N,/USB_D-*%
X103600000Y-66300000D03*
%TO.P,J2,3,D+*%
%TO.N,/USB_D+*%
X103600000Y-68300000D03*
D13*
%TO.P,J2,4,GND*%
%TO.N,GND*%
X103600000Y-70800000D03*
%TD*%
D14*
%TO.P,J1,1,5V*%
%TO.N,VBUS*%
X165929700Y-63557500D03*
%TO.P,J1,2,D-*%
%TO.N,/GPIO1*%
X165929700Y-66057500D03*
%TO.P,J1,3,D+*%
%TO.N,/GPIO0*%
X165929700Y-68057501D03*
%TO.P,J1,4,GND*%
%TO.N,GND*%
X165929700Y-70557499D03*
D15*
%TO.P,J1,5*%
%TO.N,N/C*%
X168639700Y-60487500D03*
%TO.P,J1,6*%
X168639700Y-73627500D03*
%TD*%
D16*
%TO.N,+1V1*%
X141375000Y-64000000D03*
X140825000Y-66925000D03*
X141750000Y-61750000D03*
X151200000Y-63800000D03*
%TO.N,GND*%
X142500000Y-76500000D03*
X152750000Y-68750000D03*
X118000000Y-70250000D03*
X160425000Y-63075000D03*
X110650000Y-60050000D03*
X127200000Y-56900000D03*
X151500000Y-75800000D03*
X111150000Y-71150000D03*
X169600000Y-52600000D03*
X108500000Y-55000000D03*
X135250000Y-60850000D03*
X159700000Y-77900000D03*
X135800000Y-73600000D03*
X155100000Y-61900000D03*
X113700000Y-52700000D03*
X136500000Y-59300000D03*
X154400000Y-59900000D03*
X144950000Y-54750000D03*
X124400000Y-75000000D03*
X141800000Y-59300000D03*
%TD*%
D17*
%TO.N,+1V1*%
X143950000Y-66250000D02*
X143950000Y-63950000D01*
X141375000Y-63875000D02*
X141750000Y-63500000D01*
X149750000Y-61750000D02*
X141750000Y-61750000D01*
X151200000Y-62200000D02*
X150250000Y-61250000D01*
X140825000Y-66925000D02*
X143275000Y-66925000D01*
X143950000Y-63950000D02*
X141750000Y-61750000D01*
X141375000Y-64000000D02*
X141375000Y-63875000D01*
X143275000Y-66925000D02*
X143950000Y-66250000D01*
X150250000Y-61250000D02*
X149750000Y-61750000D01*
X141750000Y-63500000D02*
X141750000Y-61750000D01*
X151200000Y-63800000D02*
X151200000Y-62200000D01*
%TD*%
%TA.AperFunction,Conductor*%
%TO.N,GND*%
G36*
X170443039Y-50519685D02*
G01*
X170488794Y-50572489D01*
X170500000Y-50624000D01*
X170500000Y-59426459D01*
X170480315Y-59493498D01*
X170427511Y-59539253D01*
X170358353Y-59549197D01*
X170294797Y-59520172D01*
X170268613Y-59488460D01*
X170257912Y-59469925D01*
X170231381Y-59423972D01*
X170078946Y-59225315D01*
X170078941Y-59225309D01*
X169901890Y-59048258D01*
X169901883Y-59048252D01*
X169703236Y-58895825D01*
X169703234Y-58895823D01*
X169703228Y-58895819D01*
X169703223Y-58895816D01*
X169703220Y-58895814D01*
X169486380Y-58770620D01*
X169486364Y-58770612D01*
X169255038Y-58674795D01*
X169013157Y-58609983D01*
X168764910Y-58577301D01*
X168764907Y-58577300D01*
X168764901Y-58577300D01*
X168514499Y-58577300D01*
X168514493Y-58577300D01*
X168514489Y-58577301D01*
X168266242Y-58609983D01*
X168024361Y-58674795D01*
X167793035Y-58770612D01*
X167793019Y-58770620D01*
X167576179Y-58895814D01*
X167576163Y-58895825D01*
X167377516Y-59048252D01*
X167377509Y-59048258D01*
X167200458Y-59225309D01*
X167200452Y-59225316D01*
X167048025Y-59423963D01*
X167048014Y-59423979D01*
X166922820Y-59640819D01*
X166922812Y-59640835D01*
X166826995Y-59872161D01*
X166762183Y-60114042D01*
X166729501Y-60362289D01*
X166729500Y-60362305D01*
X166729500Y-60612694D01*
X166729501Y-60612710D01*
X166762183Y-60860957D01*
X166826995Y-61102838D01*
X166922812Y-61334164D01*
X166922820Y-61334180D01*
X167048014Y-61551020D01*
X167048025Y-61551036D01*
X167200452Y-61749683D01*
X167200458Y-61749690D01*
X167377509Y-61926741D01*
X167377515Y-61926746D01*
X167576172Y-62079181D01*
X167576179Y-62079185D01*
X167793019Y-62204379D01*
X167793035Y-62204387D01*
X168024361Y-62300204D01*
X168024363Y-62300204D01*
X168024369Y-62300207D01*
X168266239Y-62365016D01*
X168514499Y-62397700D01*
X168514506Y-62397700D01*
X168764894Y-62397700D01*
X168764901Y-62397700D01*
X169013161Y-62365016D01*
X169255031Y-62300207D01*
X169351403Y-62260289D01*
X169486364Y-62204387D01*
X169486367Y-62204385D01*
X169486373Y-62204383D01*
X169703228Y-62079181D01*
X169901885Y-61926746D01*
X170078946Y-61749685D01*
X170231381Y-61551028D01*
X170268613Y-61486539D01*
X170319180Y-61438324D01*
X170387787Y-61425101D01*
X170452652Y-61451069D01*
X170493180Y-61507983D01*
X170500000Y-61548540D01*
X170500000Y-72566459D01*
X170480315Y-72633498D01*
X170427511Y-72679253D01*
X170358353Y-72689197D01*
X170294797Y-72660172D01*
X170268613Y-72628460D01*
X170264037Y-72620534D01*
X170231381Y-72563972D01*
X170078946Y-72365315D01*
X170078941Y-72365309D01*
X169901890Y-72188258D01*
X169901883Y-72188252D01*
X169703236Y-72035825D01*
X169703234Y-72035823D01*
X169703228Y-72035819D01*
X169703223Y-72035816D01*
X169703220Y-72035814D01*
X169486380Y-71910620D01*
X169486364Y-71910612D01*
X169255038Y-71814795D01*
X169013157Y-71749983D01*
X168764910Y-71717301D01*
X168764907Y-71717300D01*
X168764901Y-71717300D01*
X168514499Y-71717300D01*
X168514493Y-71717300D01*
X168514489Y-71717301D01*
X168266242Y-71749983D01*
X168024361Y-71814795D01*
X167793035Y-71910612D01*
X167793019Y-71910620D01*
X167576179Y-72035814D01*
X167576163Y-72035825D01*
X167377516Y-72188252D01*
X167377509Y-72188258D01*
X167200458Y-72365309D01*
X167200452Y-72365316D01*
X167048025Y-72563963D01*
X167048014Y-72563979D01*
X166922820Y-72780819D01*
X166922812Y-72780835D01*
X166826995Y-73012161D01*
X166762183Y-73254042D01*
X166729501Y-73502289D01*
X166729500Y-73502305D01*
X166729500Y-73752694D01*
X166729501Y-73752710D01*
X166759352Y-73979454D01*
X166762184Y-74000961D01*
X166826032Y-74239246D01*
X166826995Y-74242838D01*
X166922812Y-74474164D01*
X166922820Y-74474180D01*
X167048014Y-74691020D01*
X167048025Y-74691036D01*
X167200452Y-74889683D01*
X167200458Y-74889690D01*
X167377509Y-75066741D01*
X167377515Y-75066746D01*
X167576172Y-75219181D01*
X167576179Y-75219185D01*
X167793019Y-75344379D01*
X167793035Y-75344387D01*
X168024361Y-75440204D01*
X168024363Y-75440204D01*
X168024369Y-75440207D01*
X168266239Y-75505016D01*
X168514499Y-75537700D01*
X168514506Y-75537700D01*
X168764894Y-75537700D01*
X168764901Y-75537700D01*
X169013161Y-75505016D01*
X169255031Y-75440207D01*
X169317445Y-75414354D01*
X169486364Y-75344387D01*
X169486367Y-75344385D01*
X169486373Y-75344383D01*
X169703228Y-75219181D01*
X169901885Y-75066746D01*
X170078946Y-74889685D01*
X170231381Y-74691028D01*
X170268613Y-74626539D01*
X170319180Y-74578324D01*
X170387787Y-74565101D01*
X170452652Y-74591069D01*
X170493180Y-74647983D01*
X170500000Y-74688540D01*
X170500000Y-78770835D01*
X170480315Y-78837874D01*
X170427511Y-78883629D01*
X170358353Y-78893573D01*
X170294797Y-78864548D01*
X170264280Y-78824637D01*
X170130247Y-78546316D01*
X170130246Y-78546314D01*
X169950946Y-78260961D01*
X169740825Y-77997477D01*
X169502523Y-77759175D01*
X169239039Y-77549054D01*
X168953686Y-77369754D01*
X168953683Y-77369752D01*
X168650054Y-77223532D01*
X168331965Y-77112227D01*
X168331953Y-77112223D01*
X168003397Y-77037233D01*
X168003381Y-77037231D01*
X167668508Y-76999500D01*
X167668504Y-76999500D01*
X167331496Y-76999500D01*
X167331491Y-76999500D01*
X166996618Y-77037231D01*
X166996602Y-77037233D01*
X166668046Y-77112223D01*
X166668034Y-77112227D01*
X166349945Y-77223532D01*
X166046316Y-77369752D01*
X165760962Y-77549053D01*
X165497477Y-77759174D01*
X165259174Y-77997477D01*
X165049053Y-78260962D01*
X164869752Y-78546316D01*
X164723532Y-78849945D01*
X164612227Y-79168034D01*
X164612223Y-79168046D01*
X164537233Y-79496602D01*
X164537231Y-79496618D01*
X164499500Y-79831491D01*
X164499500Y-80168508D01*
X164537231Y-80503381D01*
X164537233Y-80503397D01*
X164612223Y-80831953D01*
X164612227Y-80831965D01*
X164723532Y-81150054D01*
X164869752Y-81453683D01*
X164869754Y-81453686D01*
X165049054Y-81739039D01*
X165259175Y-82002523D01*
X165497477Y-82240825D01*
X165760961Y-82450946D01*
X166046314Y-82630246D01*
X166046316Y-82630247D01*
X166324638Y-82764280D01*
X166376497Y-82811102D01*
X166394810Y-82878529D01*
X166373762Y-82945153D01*
X166320036Y-82989822D01*
X166270836Y-83000000D01*
X99125922Y-83000000D01*
X99058883Y-82980315D01*
X99013128Y-82927511D01*
X99001937Y-82874093D01*
X99003626Y-82764280D01*
X99129811Y-74562268D01*
X99150523Y-74495544D01*
X99204025Y-74450607D01*
X99273328Y-74441728D01*
X99336430Y-74471727D01*
X99358789Y-74498208D01*
X99417138Y-74591069D01*
X99498319Y-74720268D01*
X99669925Y-74935455D01*
X99864545Y-75130075D01*
X100079732Y-75301681D01*
X100312779Y-75448114D01*
X100560757Y-75567534D01*
X100755865Y-75635805D01*
X100820534Y-75658434D01*
X100820546Y-75658438D01*
X101088879Y-75719683D01*
X101362378Y-75750499D01*
X101362379Y-75750500D01*
X101362383Y-75750500D01*
X101637621Y-75750500D01*
X101637621Y-75750499D01*
X101911121Y-75719683D01*
X102179454Y-75658438D01*
X102439243Y-75567534D01*
X102687221Y-75448114D01*
X102920268Y-75301681D01*
X103135455Y-75130075D01*
X103330075Y-74935455D01*
X103501681Y-74720268D01*
X103648114Y-74487221D01*
X103767534Y-74239243D01*
X103858438Y-73979454D01*
X103919683Y-73711121D01*
X103950500Y-73437617D01*
X103950500Y-73162383D01*
X103919683Y-72888879D01*
X103858438Y-72620546D01*
X103767534Y-72360757D01*
X103648114Y-72112779D01*
X103501681Y-71879732D01*
X103330075Y-71664545D01*
X103135455Y-71469925D01*
X102920268Y-71298319D01*
X102687221Y-71151886D01*
X102687218Y-71151884D01*
X102439246Y-71032467D01*
X102179465Y-70941565D01*
X102179453Y-70941561D01*
X101911124Y-70880317D01*
X101911108Y-70880315D01*
X101637621Y-70849500D01*
X101637617Y-70849500D01*
X101362383Y-70849500D01*
X101362379Y-70849500D01*
X101088891Y-70880315D01*
X101088875Y-70880317D01*
X100820546Y-70941561D01*
X100820534Y-70941565D01*
X100560753Y-71032467D01*
X100312781Y-71151884D01*
X100079733Y-71298318D01*
X99864545Y-71469924D01*
X99669924Y-71664545D01*
X99498318Y-71879733D01*
X99398664Y-72038332D01*
X99346329Y-72084623D01*
X99277276Y-72095271D01*
X99213427Y-72066896D01*
X99175055Y-72008507D01*
X99169685Y-71970453D01*
X99174392Y-71664545D01*
X99208136Y-69471153D01*
X100699500Y-69471153D01*
X100699500Y-69628846D01*
X100730261Y-69783489D01*
X100730264Y-69783501D01*
X100790602Y-69929172D01*
X100790609Y-69929185D01*
X100878210Y-70060288D01*
X100878213Y-70060292D01*
X100989707Y-70171786D01*
X100989711Y-70171789D01*
X101120814Y-70259390D01*
X101120827Y-70259397D01*
X101266498Y-70319735D01*
X101266503Y-70319737D01*
X101421153Y-70350499D01*
X101421156Y-70350500D01*
X101421158Y-70350500D01*
X101578844Y-70350500D01*
X101578845Y-70350499D01*
X101733497Y-70319737D01*
X101879179Y-70259394D01*
X102010289Y-70171789D01*
X102121789Y-70060289D01*
X102209394Y-69929179D01*
X102269737Y-69783497D01*
X102300500Y-69628842D01*
X102300500Y-69471158D01*
X102300500Y-69471155D01*
X102300499Y-69471153D01*
X102269737Y-69316503D01*
X102269735Y-69316498D01*
X102209397Y-69170827D01*
X102209390Y-69170814D01*
X102121789Y-69039711D01*
X102121786Y-69039707D01*
X102010292Y-68928213D01*
X102010288Y-68928210D01*
X101879185Y-68840609D01*
X101879172Y-68840602D01*
X101733501Y-68780264D01*
X101733489Y-68780261D01*
X101578845Y-68749500D01*
X101578842Y-68749500D01*
X101421158Y-68749500D01*
X101421155Y-68749500D01*
X101266510Y-68780261D01*
X101266498Y-68780264D01*
X101120827Y-68840602D01*
X101120814Y-68840609D01*
X100989711Y-68928210D01*
X100989707Y-68928213D01*
X100878213Y-69039707D01*
X100878210Y-69039711D01*
X100790609Y-69170814D01*
X100790602Y-69170827D01*
X100730264Y-69316498D01*
X100730261Y-69316510D01*
X100699500Y-69471153D01*
X99208136Y-69471153D01*
X99277366Y-64971153D01*
X100699500Y-64971153D01*
X100699500Y-65128846D01*
X100730261Y-65283489D01*
X100730264Y-65283501D01*
X100790602Y-65429172D01*
X100790609Y-65429185D01*
X100878210Y-65560288D01*
X100878213Y-65560292D01*
X100989707Y-65671786D01*
X100989711Y-65671789D01*
X101120814Y-65759390D01*
X101120827Y-65759397D01*
X101266498Y-65819735D01*
X101266503Y-65819737D01*
X101421153Y-65850499D01*
X101421156Y-65850500D01*
X101421158Y-65850500D01*
X101578844Y-65850500D01*
X101578845Y-65850499D01*
X101733497Y-65819737D01*
X101879179Y-65759394D01*
X102010289Y-65671789D01*
X102121789Y-65560289D01*
X102209394Y-65429179D01*
X102269737Y-65283497D01*
X102300500Y-65128842D01*
X102300500Y-64971158D01*
X102300500Y-64971155D01*
X102300499Y-64971153D01*
X102269737Y-64816503D01*
X102263808Y-64802189D01*
X102209397Y-64670827D01*
X102209390Y-64670814D01*
X102121789Y-64539711D01*
X102121786Y-64539707D01*
X102010292Y-64428213D01*
X102010288Y-64428210D01*
X101879185Y-64340609D01*
X101879172Y-64340602D01*
X101733501Y-64280264D01*
X101733489Y-64280261D01*
X101578845Y-64249500D01*
X101578842Y-64249500D01*
X101421158Y-64249500D01*
X101421155Y-64249500D01*
X101266510Y-64280261D01*
X101266498Y-64280264D01*
X101120827Y-64340602D01*
X101120814Y-64340609D01*
X100989711Y-64428210D01*
X100989707Y-64428213D01*
X100878213Y-64539707D01*
X100878210Y-64539711D01*
X100790609Y-64670814D01*
X100790602Y-64670827D01*
X100730264Y-64816498D01*
X100730261Y-64816510D01*
X100699500Y-64971153D01*
X99277366Y-64971153D01*
X99310202Y-62836820D01*
X99330915Y-62770094D01*
X99384417Y-62725157D01*
X99453720Y-62716278D01*
X99516822Y-62746277D01*
X99531134Y-62761417D01*
X99669925Y-62935455D01*
X99864545Y-63130075D01*
X100079732Y-63301681D01*
X100269352Y-63420827D01*
X100312781Y-63448115D01*
X100357142Y-63469478D01*
X100560757Y-63567534D01*
X100713023Y-63620814D01*
X100820534Y-63658434D01*
X100820546Y-63658438D01*
X101088879Y-63719683D01*
X101362378Y-63750499D01*
X101362379Y-63750500D01*
X101362383Y-63750500D01*
X101637621Y-63750500D01*
X101637621Y-63750499D01*
X101911121Y-63719683D01*
X102179454Y-63658438D01*
X102184544Y-63656656D01*
X102254318Y-63653092D01*
X102314947Y-63687818D01*
X102347177Y-63749810D01*
X102349500Y-63773697D01*
X102349500Y-63898422D01*
X102380290Y-64092826D01*
X102441117Y-64280029D01*
X102516620Y-64428211D01*
X102530476Y-64455405D01*
X102646172Y-64614646D01*
X102785354Y-64753828D01*
X102944595Y-64869524D01*
X103013613Y-64904690D01*
X103081960Y-64939515D01*
X103132756Y-64987490D01*
X103149551Y-65055311D01*
X103127014Y-65121446D01*
X103081960Y-65160485D01*
X102944594Y-65230476D01*
X102871629Y-65283489D01*
X102785354Y-65346172D01*
X102785352Y-65346174D01*
X102785351Y-65346174D01*
X102646174Y-65485351D01*
X102646174Y-65485352D01*
X102646172Y-65485354D01*
X102596485Y-65553741D01*
X102530476Y-65644594D01*
X102441117Y-65819970D01*
X102380290Y-66007173D01*
X102349500Y-66201577D01*
X102349500Y-66398422D01*
X102380290Y-66592826D01*
X102441117Y-66780029D01*
X102487822Y-66871692D01*
X102530476Y-66955405D01*
X102646172Y-67114646D01*
X102646174Y-67114648D01*
X102743845Y-67212319D01*
X102777330Y-67273642D01*
X102772346Y-67343334D01*
X102743845Y-67387681D01*
X102646174Y-67485351D01*
X102646174Y-67485352D01*
X102646172Y-67485354D01*
X102616990Y-67525520D01*
X102530476Y-67644594D01*
X102441117Y-67819970D01*
X102380290Y-68007173D01*
X102349500Y-68201577D01*
X102349500Y-68398422D01*
X102380290Y-68592826D01*
X102441117Y-68780029D01*
X102516620Y-68928211D01*
X102530476Y-68955405D01*
X102646172Y-69114646D01*
X102785354Y-69253828D01*
X102944595Y-69369524D01*
X103027455Y-69411743D01*
X103119970Y-69458882D01*
X103119972Y-69458882D01*
X103119975Y-69458884D01*
X103220317Y-69491487D01*
X103307173Y-69519709D01*
X103501578Y-69550500D01*
X103501583Y-69550500D01*
X103698422Y-69550500D01*
X103892826Y-69519709D01*
X104080025Y-69458884D01*
X104255405Y-69369524D01*
X104414646Y-69253828D01*
X104553828Y-69114646D01*
X104669524Y-68955405D01*
X104758884Y-68780025D01*
X104819709Y-68592826D01*
X104850500Y-68398422D01*
X104850500Y-68201577D01*
X104819709Y-68007173D01*
X104758882Y-67819970D01*
X104669523Y-67644594D01*
X104553828Y-67485354D01*
X104456155Y-67387681D01*
X104422670Y-67326358D01*
X104427654Y-67256666D01*
X104456155Y-67212319D01*
X104553828Y-67114646D01*
X104669524Y-66955405D01*
X104725190Y-66846153D01*
X140024500Y-66846153D01*
X140024500Y-67003846D01*
X140055261Y-67158489D01*
X140055264Y-67158501D01*
X140115602Y-67304172D01*
X140115609Y-67304185D01*
X140203210Y-67435288D01*
X140203213Y-67435292D01*
X140314707Y-67546786D01*
X140314711Y-67546789D01*
X140445814Y-67634390D01*
X140445827Y-67634397D01*
X140591498Y-67694735D01*
X140591503Y-67694737D01*
X140746153Y-67725499D01*
X140746156Y-67725500D01*
X140746158Y-67725500D01*
X140903844Y-67725500D01*
X140903845Y-67725499D01*
X141058497Y-67694737D01*
X141204179Y-67634394D01*
X141288962Y-67577744D01*
X141335875Y-67546398D01*
X141402553Y-67525520D01*
X141404766Y-67525500D01*
X143188331Y-67525500D01*
X143188347Y-67525501D01*
X143195943Y-67525501D01*
X143354054Y-67525501D01*
X143354057Y-67525501D01*
X143506785Y-67484577D01*
X143556904Y-67455639D01*
X143643716Y-67405520D01*
X143755520Y-67293716D01*
X143755520Y-67293714D01*
X143765728Y-67283507D01*
X143765730Y-67283504D01*
X144308506Y-66740728D01*
X144308511Y-66740724D01*
X144318714Y-66730520D01*
X144318716Y-66730520D01*
X144430520Y-66618716D01*
X144493096Y-66510331D01*
X144509577Y-66481785D01*
X144550500Y-66329057D01*
X144550500Y-66170943D01*
X144550500Y-64039059D01*
X144550501Y-64039046D01*
X144550501Y-63870945D01*
X144550501Y-63870943D01*
X144509577Y-63718215D01*
X144466276Y-63643216D01*
X144430520Y-63581284D01*
X144318716Y-63469480D01*
X144318715Y-63469479D01*
X144314385Y-63465149D01*
X144314374Y-63465139D01*
X143411416Y-62562181D01*
X143377931Y-62500858D01*
X143382915Y-62431166D01*
X143424787Y-62375233D01*
X143490251Y-62350816D01*
X143499097Y-62350500D01*
X149663331Y-62350500D01*
X149663347Y-62350501D01*
X149670943Y-62350501D01*
X149829054Y-62350501D01*
X149829057Y-62350501D01*
X149981785Y-62309577D01*
X150034647Y-62279057D01*
X150118716Y-62230520D01*
X150169146Y-62180089D01*
X150176931Y-62174412D01*
X150201105Y-62165736D01*
X150223641Y-62153431D01*
X150233442Y-62154131D01*
X150242694Y-62150812D01*
X150267719Y-62156583D01*
X150293332Y-62158415D01*
X150303221Y-62164770D01*
X150310777Y-62166513D01*
X150318914Y-62174855D01*
X150337681Y-62186916D01*
X150563181Y-62412416D01*
X150596666Y-62473739D01*
X150599500Y-62500097D01*
X150599500Y-63220234D01*
X150579815Y-63287273D01*
X150578602Y-63289125D01*
X150490609Y-63420814D01*
X150490602Y-63420827D01*
X150430264Y-63566498D01*
X150430261Y-63566510D01*
X150399500Y-63721153D01*
X150399500Y-63878846D01*
X150430261Y-64033489D01*
X150430264Y-64033501D01*
X150490602Y-64179172D01*
X150490609Y-64179185D01*
X150578210Y-64310288D01*
X150578213Y-64310292D01*
X150689707Y-64421786D01*
X150689711Y-64421789D01*
X150820814Y-64509390D01*
X150820827Y-64509397D01*
X150894013Y-64539711D01*
X150966503Y-64569737D01*
X151121153Y-64600499D01*
X151121156Y-64600500D01*
X151121158Y-64600500D01*
X151278844Y-64600500D01*
X151278845Y-64600499D01*
X151433497Y-64569737D01*
X151575799Y-64510794D01*
X151579172Y-64509397D01*
X151579172Y-64509396D01*
X151579179Y-64509394D01*
X151710289Y-64421789D01*
X151821789Y-64310289D01*
X151909394Y-64179179D01*
X151969737Y-64033497D01*
X152000500Y-63878842D01*
X152000500Y-63721158D01*
X152000500Y-63721155D01*
X152000499Y-63721153D01*
X151987670Y-63656657D01*
X151969737Y-63566503D01*
X151969735Y-63566498D01*
X151942903Y-63501719D01*
X151925264Y-63459133D01*
X164679900Y-63459133D01*
X164679900Y-63655866D01*
X164710673Y-63850162D01*
X164771466Y-64037261D01*
X164843774Y-64179172D01*
X164860775Y-64212538D01*
X164976406Y-64371690D01*
X165115510Y-64510794D01*
X165274662Y-64626425D01*
X165347126Y-64663347D01*
X165413202Y-64697015D01*
X165463998Y-64744990D01*
X165480793Y-64812811D01*
X165458255Y-64878946D01*
X165413202Y-64917985D01*
X165274661Y-64988575D01*
X165190118Y-65050000D01*
X165115510Y-65104206D01*
X165115508Y-65104208D01*
X165115507Y-65104208D01*
X164976408Y-65243307D01*
X164976408Y-65243308D01*
X164976406Y-65243310D01*
X164926747Y-65311659D01*
X164860775Y-65402461D01*
X164771466Y-65577738D01*
X164710673Y-65764837D01*
X164679900Y-65959133D01*
X164679900Y-66155866D01*
X164710673Y-66350162D01*
X164771466Y-66537261D01*
X164850057Y-66691503D01*
X164860775Y-66712538D01*
X164976406Y-66871690D01*
X164976408Y-66871692D01*
X165074535Y-66969819D01*
X165108020Y-67031142D01*
X165103036Y-67100834D01*
X165074536Y-67145181D01*
X164976405Y-67243312D01*
X164860775Y-67402462D01*
X164771466Y-67577739D01*
X164710673Y-67764838D01*
X164679900Y-67959134D01*
X164679900Y-68155867D01*
X164710673Y-68350163D01*
X164771466Y-68537262D01*
X164799778Y-68592826D01*
X164860775Y-68712539D01*
X164976406Y-68871691D01*
X165115510Y-69010795D01*
X165274662Y-69126426D01*
X165357474Y-69168621D01*
X165449938Y-69215734D01*
X165449940Y-69215734D01*
X165449943Y-69215736D01*
X165550230Y-69248321D01*
X165637037Y-69276527D01*
X165831334Y-69307301D01*
X165831339Y-69307301D01*
X166028066Y-69307301D01*
X166222362Y-69276527D01*
X166409457Y-69215736D01*
X166584738Y-69126426D01*
X166743890Y-69010795D01*
X166882994Y-68871691D01*
X166998625Y-68712539D01*
X167087935Y-68537258D01*
X167148726Y-68350163D01*
X167172260Y-68201577D01*
X167179500Y-68155867D01*
X167179500Y-67959134D01*
X167148726Y-67764838D01*
X167087933Y-67577739D01*
X167015352Y-67435292D01*
X166998625Y-67402463D01*
X166882994Y-67243311D01*
X166784864Y-67145181D01*
X166751379Y-67083858D01*
X166756363Y-67014166D01*
X166784860Y-66969823D01*
X166882994Y-66871690D01*
X166998625Y-66712538D01*
X167087935Y-66537257D01*
X167148726Y-66350162D01*
X167152069Y-66329055D01*
X167179500Y-66155866D01*
X167179500Y-65959133D01*
X167148726Y-65764837D01*
X167118491Y-65671786D01*
X167087935Y-65577743D01*
X167087933Y-65577740D01*
X167087933Y-65577738D01*
X166998624Y-65402461D01*
X166957729Y-65346174D01*
X166882994Y-65243310D01*
X166743890Y-65104206D01*
X166584738Y-64988575D01*
X166446196Y-64917984D01*
X166395401Y-64870010D01*
X166378606Y-64802189D01*
X166401143Y-64736055D01*
X166446197Y-64697015D01*
X166584738Y-64626425D01*
X166743890Y-64510794D01*
X166882994Y-64371690D01*
X166998625Y-64212538D01*
X167087935Y-64037257D01*
X167148726Y-63850162D01*
X167161975Y-63766510D01*
X167179500Y-63655866D01*
X167179500Y-63459133D01*
X167148726Y-63264837D01*
X167120520Y-63178030D01*
X167087935Y-63077743D01*
X167087933Y-63077740D01*
X167087933Y-63077738D01*
X167040820Y-62985274D01*
X166998625Y-62902462D01*
X166882994Y-62743310D01*
X166743890Y-62604206D01*
X166584738Y-62488575D01*
X166582081Y-62487221D01*
X166409461Y-62399266D01*
X166222362Y-62338473D01*
X166028066Y-62307700D01*
X166028061Y-62307700D01*
X165831339Y-62307700D01*
X165831334Y-62307700D01*
X165637037Y-62338473D01*
X165449938Y-62399266D01*
X165274661Y-62488575D01*
X165190806Y-62549500D01*
X165115510Y-62604206D01*
X165115508Y-62604208D01*
X165115507Y-62604208D01*
X164976408Y-62743307D01*
X164976408Y-62743308D01*
X164976406Y-62743310D01*
X164926747Y-62811659D01*
X164860775Y-62902461D01*
X164771466Y-63077738D01*
X164710673Y-63264837D01*
X164679900Y-63459133D01*
X151925264Y-63459133D01*
X151909397Y-63420827D01*
X151909390Y-63420814D01*
X151821398Y-63289125D01*
X151800520Y-63222447D01*
X151800500Y-63220234D01*
X151800500Y-62289059D01*
X151800501Y-62289046D01*
X151800501Y-62120945D01*
X151800501Y-62120943D01*
X151759577Y-61968215D01*
X151735635Y-61926747D01*
X151722507Y-61904008D01*
X151722506Y-61904007D01*
X151680521Y-61831286D01*
X151680520Y-61831284D01*
X151568716Y-61719480D01*
X151568715Y-61719479D01*
X151564385Y-61715149D01*
X151564374Y-61715139D01*
X150737590Y-60888355D01*
X150737588Y-60888352D01*
X150618718Y-60769482D01*
X150618716Y-60769480D01*
X150481785Y-60690423D01*
X150329058Y-60649499D01*
X150329057Y-60649499D01*
X150170943Y-60649499D01*
X150063587Y-60678265D01*
X150018210Y-60690424D01*
X150018209Y-60690425D01*
X149968096Y-60719359D01*
X149968095Y-60719360D01*
X149924689Y-60744420D01*
X149881285Y-60769479D01*
X149881282Y-60769481D01*
X149537584Y-61113181D01*
X149476261Y-61146666D01*
X149449903Y-61149500D01*
X142329766Y-61149500D01*
X142262727Y-61129815D01*
X142260875Y-61128602D01*
X142129185Y-61040609D01*
X142129172Y-61040602D01*
X141983501Y-60980264D01*
X141983489Y-60980261D01*
X141828845Y-60949500D01*
X141828842Y-60949500D01*
X141671158Y-60949500D01*
X141671155Y-60949500D01*
X141516510Y-60980261D01*
X141516498Y-60980264D01*
X141370827Y-61040602D01*
X141370814Y-61040609D01*
X141239711Y-61128210D01*
X141239707Y-61128213D01*
X141128213Y-61239707D01*
X141128210Y-61239711D01*
X141040609Y-61370814D01*
X141040602Y-61370827D01*
X140980264Y-61516498D01*
X140980261Y-61516510D01*
X140949500Y-61671153D01*
X140949500Y-61828846D01*
X140980261Y-61983489D01*
X140980264Y-61983501D01*
X141040602Y-62129172D01*
X141040609Y-62129185D01*
X141128602Y-62260874D01*
X141149480Y-62327551D01*
X141149500Y-62329765D01*
X141149500Y-63144095D01*
X141129815Y-63211134D01*
X141077011Y-63256889D01*
X141072954Y-63258656D01*
X140995820Y-63290606D01*
X140995814Y-63290609D01*
X140864711Y-63378210D01*
X140864707Y-63378213D01*
X140753213Y-63489707D01*
X140753210Y-63489711D01*
X140665609Y-63620814D01*
X140665602Y-63620827D01*
X140605264Y-63766498D01*
X140605261Y-63766510D01*
X140574500Y-63921153D01*
X140574500Y-64078846D01*
X140605261Y-64233489D01*
X140605264Y-64233501D01*
X140665602Y-64379172D01*
X140665609Y-64379185D01*
X140753210Y-64510288D01*
X140753213Y-64510292D01*
X140864707Y-64621786D01*
X140864711Y-64621789D01*
X140995814Y-64709390D01*
X140995827Y-64709397D01*
X141103095Y-64753828D01*
X141141503Y-64769737D01*
X141296153Y-64800499D01*
X141296156Y-64800500D01*
X141296158Y-64800500D01*
X141453844Y-64800500D01*
X141453845Y-64800499D01*
X141608497Y-64769737D01*
X141754179Y-64709394D01*
X141885289Y-64621789D01*
X141996789Y-64510289D01*
X142084394Y-64379179D01*
X142144737Y-64233497D01*
X142175500Y-64078842D01*
X142175500Y-63975098D01*
X142195185Y-63908059D01*
X142196225Y-63906467D01*
X142203071Y-63896164D01*
X142230520Y-63868716D01*
X142289532Y-63766503D01*
X142309577Y-63731785D01*
X142350500Y-63579057D01*
X142350500Y-63499097D01*
X142370185Y-63432058D01*
X142422989Y-63386303D01*
X142492147Y-63376359D01*
X142555703Y-63405384D01*
X142562181Y-63411416D01*
X143313181Y-64162416D01*
X143346666Y-64223739D01*
X143349500Y-64250097D01*
X143349500Y-65949903D01*
X143329815Y-66016942D01*
X143313181Y-66037584D01*
X143062584Y-66288181D01*
X143001261Y-66321666D01*
X142974903Y-66324500D01*
X141404766Y-66324500D01*
X141337727Y-66304815D01*
X141335875Y-66303602D01*
X141204185Y-66215609D01*
X141204172Y-66215602D01*
X141058501Y-66155264D01*
X141058489Y-66155261D01*
X140903845Y-66124500D01*
X140903842Y-66124500D01*
X140746158Y-66124500D01*
X140746155Y-66124500D01*
X140591510Y-66155261D01*
X140591498Y-66155264D01*
X140445827Y-66215602D01*
X140445814Y-66215609D01*
X140314711Y-66303210D01*
X140314707Y-66303213D01*
X140203213Y-66414707D01*
X140203210Y-66414711D01*
X140115609Y-66545814D01*
X140115602Y-66545827D01*
X140055264Y-66691498D01*
X140055261Y-66691510D01*
X140024500Y-66846153D01*
X104725190Y-66846153D01*
X104758884Y-66780025D01*
X104819709Y-66592826D01*
X104837296Y-66481785D01*
X104850500Y-66398422D01*
X104850500Y-66201577D01*
X104819709Y-66007173D01*
X104758882Y-65819970D01*
X104669523Y-65644594D01*
X104553828Y-65485354D01*
X104414646Y-65346172D01*
X104255405Y-65230476D01*
X104118038Y-65160484D01*
X104067243Y-65112511D01*
X104050448Y-65044690D01*
X104072985Y-64978555D01*
X104118039Y-64939515D01*
X104160294Y-64917985D01*
X104255405Y-64869524D01*
X104414646Y-64753828D01*
X104553828Y-64614646D01*
X104669524Y-64455405D01*
X104758884Y-64280025D01*
X104819709Y-64092826D01*
X104829107Y-64033489D01*
X104850500Y-63898422D01*
X104850500Y-63701577D01*
X104819709Y-63507173D01*
X104758882Y-63319970D01*
X104669523Y-63144594D01*
X104553828Y-62985354D01*
X104414646Y-62846172D01*
X104255405Y-62730476D01*
X104227540Y-62716278D01*
X104080029Y-62641117D01*
X103892827Y-62580291D01*
X103788464Y-62563761D01*
X103725330Y-62533831D01*
X103688399Y-62474520D01*
X103689397Y-62404657D01*
X103696139Y-62387495D01*
X103767534Y-62239243D01*
X103858438Y-61979454D01*
X103919683Y-61711121D01*
X103950500Y-61437617D01*
X103950500Y-61162383D01*
X103919683Y-60888879D01*
X103858438Y-60620546D01*
X103855690Y-60612694D01*
X103835805Y-60555865D01*
X103767534Y-60360757D01*
X103648114Y-60112779D01*
X103501681Y-59879732D01*
X103330075Y-59664545D01*
X103135455Y-59469925D01*
X102920268Y-59298319D01*
X102687221Y-59151886D01*
X102687218Y-59151884D01*
X102439246Y-59032467D01*
X102179465Y-58941565D01*
X102179453Y-58941561D01*
X101911124Y-58880317D01*
X101911108Y-58880315D01*
X101637621Y-58849500D01*
X101637617Y-58849500D01*
X101362383Y-58849500D01*
X101362379Y-58849500D01*
X101088891Y-58880315D01*
X101088875Y-58880317D01*
X100820546Y-58941561D01*
X100820534Y-58941565D01*
X100560753Y-59032467D01*
X100312781Y-59151884D01*
X100079733Y-59298318D01*
X99864545Y-59469924D01*
X99669924Y-59664545D01*
X99579410Y-59778046D01*
X99522221Y-59818186D01*
X99452410Y-59821036D01*
X99392140Y-59785690D01*
X99360547Y-59723371D01*
X99358479Y-59698842D01*
X99437529Y-54560563D01*
X99458242Y-54493837D01*
X99511744Y-54448900D01*
X99581047Y-54440021D01*
X99644149Y-54470020D01*
X99678555Y-54521518D01*
X99723532Y-54650054D01*
X99869752Y-54953683D01*
X99869754Y-54953686D01*
X100049054Y-55239039D01*
X100259175Y-55502523D01*
X100497477Y-55740825D01*
X100760961Y-55950946D01*
X101046314Y-56130246D01*
X101349949Y-56276469D01*
X101588848Y-56360063D01*
X101668034Y-56387772D01*
X101668046Y-56387776D01*
X101996606Y-56462767D01*
X102331492Y-56500499D01*
X102331493Y-56500500D01*
X102331496Y-56500500D01*
X102668507Y-56500500D01*
X102668507Y-56500499D01*
X103003394Y-56462767D01*
X103331954Y-56387776D01*
X103650051Y-56276469D01*
X103953686Y-56130246D01*
X104239039Y-55950946D01*
X104502523Y-55740825D01*
X104740825Y-55502523D01*
X104950946Y-55239039D01*
X105130246Y-54953686D01*
X105276469Y-54650051D01*
X105387776Y-54331954D01*
X105462767Y-54003394D01*
X105500500Y-53668504D01*
X105500500Y-53331496D01*
X105462767Y-52996606D01*
X105387776Y-52668046D01*
X105276469Y-52349949D01*
X105130246Y-52046314D01*
X104950946Y-51760961D01*
X104740825Y-51497477D01*
X104502523Y-51259175D01*
X104239039Y-51049054D01*
X103953686Y-50869754D01*
X103953683Y-50869752D01*
X103675362Y-50735720D01*
X103623503Y-50688898D01*
X103605190Y-50621471D01*
X103626238Y-50554847D01*
X103679964Y-50510178D01*
X103729164Y-50500000D01*
X170376000Y-50500000D01*
X170443039Y-50519685D01*
G37*
%TD.AperFunction*%
%TD*%
M02*
