M48
; DRILL file {KiCad 9.0.6} date 2026-01-01T05:05:07-0600
; FORMAT={-:-/ absolute / metric / decimal}
; #@! TF.CreationDate,2026-01-01T05:05:07-06:00
; #@! TF.GenerationSoftware,Kicad,Pcbnew,9.0.6
; #@! TF.FileFunction,Plated,1,2,PTH
FMAT,2
METRIC
; #@! TA.AperFunction,Plated,PTH,ViaDrill
T1C0.300
; #@! TA.AperFunction,Plated,PTH,ComponentDrill
T2C0.350
; #@! TA.AperFunction,Plated,PTH,ComponentDrill
T3C0.991
; #@! TA.AperFunction,Plated,PTH,ComponentDrill
T4C1.000
; #@! TA.AperFunction,Plated,PTH,ComponentDrill
T5C2.311
; #@! TA.AperFunction,Plated,PTH,ComponentDrill
T6C2.600
%
G90
G05
T1
X108.5Y-55.0
X111.1Y-67.8
X111.3Y-66.1
X113.7Y-52.7
X118.0Y-70.25
X124.4Y-75.0
X127.2Y-56.9
X135.8Y-73.6
X136.5Y-59.3
X139.4Y-65.4
X141.375Y-64.0
X141.4Y-66.6
X141.75Y-61.75
X141.8Y-59.3
X142.5Y-76.5
X151.2Y-63.8
X151.5Y-70.0
X151.5Y-76.525
X152.75Y-68.75
X154.4Y-59.9
X155.0Y-76.5
X155.0Y-78.75
X155.1Y-61.9
T2
X145.0Y-65.45
X145.0Y-66.725
X145.0Y-68.0
X146.275Y-65.45
X146.275Y-66.725
X146.275Y-68.0
X147.55Y-65.45
X147.55Y-66.725
X147.55Y-68.0
T3
X165.93Y-63.493
X165.93Y-65.992
X165.93Y-67.992
X165.93Y-70.492
T4
X104.375Y-63.85
X104.375Y-66.35
X104.375Y-68.35
X104.375Y-70.85
T5
X168.64Y-60.422
X168.64Y-73.562
T6
X102.275Y-61.35
X102.275Y-73.35
M30
