M48
; DRILL file {KiCad 9.0.6} date 2026-03-05T00:13:08-0600
; FORMAT={-:-/ absolute / metric / decimal}
; #@! TF.CreationDate,2026-03-05T00:13:08-06:00
; #@! TF.GenerationSoftware,Kicad,Pcbnew,9.0.6
; #@! TF.FileFunction,Plated,1,2,PTH
FMAT,2
METRIC
; #@! TA.AperFunction,Plated,PTH,ViaDrill
T1C0.300
; #@! TA.AperFunction,Plated,PTH,ComponentDrill
T2C0.350
; #@! TA.AperFunction,Plated,PTH,ComponentDrill
T3C0.991
; #@! TA.AperFunction,Plated,PTH,ComponentDrill
T4C1.000
; #@! TA.AperFunction,Plated,PTH,ComponentDrill
T5C2.311
; #@! TA.AperFunction,Plated,PTH,ComponentDrill
T6C2.600
%
G90
G05
T1
X108.5Y-55.0
X111.15Y-71.15
X113.7Y-52.7
X118.0Y-70.25
X124.4Y-75.0
X127.2Y-56.9
X135.8Y-73.6
X136.5Y-59.3
X140.825Y-66.925
X141.375Y-64.0
X141.75Y-61.75
X141.8Y-59.3
X142.5Y-76.5
X151.2Y-63.8
X151.5Y-75.8
X152.75Y-68.75
X154.4Y-59.9
X155.1Y-61.9
X159.7Y-77.9
X160.425Y-63.075
T2
X145.0Y-65.45
X145.0Y-66.725
X145.0Y-68.0
X146.275Y-65.45
X146.275Y-66.725
X146.275Y-68.0
X147.55Y-65.45
X147.55Y-66.725
X147.55Y-68.0
T3
X165.93Y-63.557
X165.93Y-66.057
X165.93Y-68.058
X165.93Y-70.557
T4
X104.25Y-63.8
X104.25Y-66.3
X104.25Y-68.3
X104.25Y-70.8
T5
X168.64Y-60.487
X168.64Y-73.627
T6
X102.15Y-61.3
X102.15Y-73.3
M30
