%TF.GenerationSoftware,KiCad,Pcbnew,9.0.6*%
%TF.CreationDate,2026-03-05T00:12:58-06:00*%
%TF.ProjectId,2040Listener,32303430-4c69-4737-9465-6e65722e6b69,rev?*%
%TF.SameCoordinates,Original*%
%TF.FileFunction,Legend,Bot*%
%TF.FilePolarity,Positive*%
%FSLAX46Y46*%
G04 Gerber Fmt 4.6, Leading zero omitted, Abs format (unit mm)*
G04 Created by KiCad (PCBNEW 9.0.6) date 2026-03-05 00:12:58*
%MOMM*%
%LPD*%
G01*
G04 APERTURE LIST*
%ADD10C,0.254000*%
%ADD11C,0.150000*%
%ADD12C,0.100000*%
%ADD13C,0.200000*%
%ADD14C,0.508000*%
%ADD15C,0.152400*%
G04 APERTURE END LIST*
D10*
X93979318Y-66876667D02*
X94886461Y-66876667D01*
X94886461Y-66876667D02*
X95067889Y-66816190D01*
X95067889Y-66816190D02*
X95188842Y-66695238D01*
X95188842Y-66695238D02*
X95249318Y-66513809D01*
X95249318Y-66513809D02*
X95249318Y-66392857D01*
X94100270Y-67420952D02*
X94039794Y-67481428D01*
X94039794Y-67481428D02*
X93979318Y-67602381D01*
X93979318Y-67602381D02*
X93979318Y-67904762D01*
X93979318Y-67904762D02*
X94039794Y-68025714D01*
X94039794Y-68025714D02*
X94100270Y-68086190D01*
X94100270Y-68086190D02*
X94221222Y-68146667D01*
X94221222Y-68146667D02*
X94342175Y-68146667D01*
X94342175Y-68146667D02*
X94523603Y-68086190D01*
X94523603Y-68086190D02*
X95249318Y-67360476D01*
X95249318Y-67360476D02*
X95249318Y-68146667D01*
D11*
X165384519Y-66724166D02*
X166098804Y-66724166D01*
X166098804Y-66724166D02*
X166241661Y-66676547D01*
X166241661Y-66676547D02*
X166336900Y-66581309D01*
X166336900Y-66581309D02*
X166384519Y-66438452D01*
X166384519Y-66438452D02*
X166384519Y-66343214D01*
X166384519Y-67724166D02*
X166384519Y-67152738D01*
X166384519Y-67438452D02*
X165384519Y-67438452D01*
X165384519Y-67438452D02*
X165527376Y-67343214D01*
X165527376Y-67343214D02*
X165622614Y-67247976D01*
X165622614Y-67247976D02*
X165670233Y-67152738D01*
D12*
%TO.C,J2*%
X105450000Y-70800000D02*
G75*
G02*
X105550000Y-70800000I50000J0D01*
G01*
X105550000Y-70800000D02*
G75*
G02*
X105450000Y-70800000I-50000J0D01*
G01*
X105550000Y-70800000D02*
X105550000Y-70800000D01*
X105450000Y-70800000D02*
X105450000Y-70800000D01*
D13*
X99610000Y-73300000D02*
X84350000Y-73300000D01*
X84350000Y-61300000D02*
X99610000Y-61300000D01*
X84350000Y-73300000D02*
X84350000Y-61300000D01*
D14*
%TO.C,SW2*%
X164733100Y-54825000D02*
G75*
G02*
X163971100Y-54825000I-381000J0D01*
G01*
X163971100Y-54825000D02*
G75*
G02*
X164733100Y-54825000I381000J0D01*
G01*
%TO.C,SW1*%
X136283100Y-76275000D02*
G75*
G02*
X135521100Y-76275000I-381000J0D01*
G01*
X135521100Y-76275000D02*
G75*
G02*
X136283100Y-76275000I381000J0D01*
G01*
D15*
%TO.C,J1*%
X164792700Y-73750400D02*
X164792700Y-60364600D01*
X164792700Y-60364600D02*
X166901599Y-60364600D01*
X166901599Y-73750400D02*
X164792700Y-73750400D01*
X170377800Y-60364600D02*
X179042100Y-60364600D01*
X179042100Y-73750400D02*
X170377800Y-73750400D01*
X179042100Y-60364600D02*
X179042100Y-73750400D01*
D14*
X163770700Y-63557500D02*
G75*
G02*
X163008700Y-63557500I-381000J0D01*
G01*
X163008700Y-63557500D02*
G75*
G02*
X163770700Y-63557500I381000J0D01*
G01*
%TD*%
M02*
