%TF.GenerationSoftware,KiCad,Pcbnew,9.0.6*%
%TF.CreationDate,2026-01-01T05:05:04-06:00*%
%TF.ProjectId,2040Listener,32303430-4c69-4737-9465-6e65722e6b69,rev?*%
%TF.SameCoordinates,Original*%
%TF.FileFunction,Legend,Top*%
%TF.FilePolarity,Positive*%
%FSLAX46Y46*%
G04 Gerber Fmt 4.6, Leading zero omitted, Abs format (unit mm)*
G04 Created by KiCad (PCBNEW 9.0.6) date 2026-01-01 05:05:04*
%MOMM*%
%LPD*%
G01*
G04 APERTURE LIST*
%ADD10C,0.300000*%
%ADD11C,0.250000*%
%ADD12C,0.150000*%
%ADD13C,0.254000*%
%ADD14C,0.120000*%
%ADD15C,0.152400*%
%ADD16C,0.508000*%
%ADD17C,0.000000*%
%ADD18C,0.200000*%
%ADD19C,0.127000*%
%ADD20C,0.100000*%
G04 APERTURE END LIST*
D10*
X112804510Y-63015114D02*
X113304510Y-63015114D01*
X113518796Y-63800828D02*
X112804510Y-63800828D01*
X112804510Y-63800828D02*
X112804510Y-62300828D01*
X112804510Y-62300828D02*
X113518796Y-62300828D01*
X114161653Y-63800828D02*
X114161653Y-62300828D01*
X114161653Y-62300828D02*
X114518796Y-62300828D01*
X114518796Y-62300828D02*
X114733082Y-62372257D01*
X114733082Y-62372257D02*
X114875939Y-62515114D01*
X114875939Y-62515114D02*
X114947368Y-62657971D01*
X114947368Y-62657971D02*
X115018796Y-62943685D01*
X115018796Y-62943685D02*
X115018796Y-63157971D01*
X115018796Y-63157971D02*
X114947368Y-63443685D01*
X114947368Y-63443685D02*
X114875939Y-63586542D01*
X114875939Y-63586542D02*
X114733082Y-63729400D01*
X114733082Y-63729400D02*
X114518796Y-63800828D01*
X114518796Y-63800828D02*
X114161653Y-63800828D01*
X115661653Y-62300828D02*
X115661653Y-63515114D01*
X115661653Y-63515114D02*
X115733082Y-63657971D01*
X115733082Y-63657971D02*
X115804511Y-63729400D01*
X115804511Y-63729400D02*
X115947368Y-63800828D01*
X115947368Y-63800828D02*
X116233082Y-63800828D01*
X116233082Y-63800828D02*
X116375939Y-63729400D01*
X116375939Y-63729400D02*
X116447368Y-63657971D01*
X116447368Y-63657971D02*
X116518796Y-63515114D01*
X116518796Y-63515114D02*
X116518796Y-62300828D01*
X118375939Y-62300828D02*
X118375939Y-63515114D01*
X118375939Y-63515114D02*
X118447368Y-63657971D01*
X118447368Y-63657971D02*
X118518797Y-63729400D01*
X118518797Y-63729400D02*
X118661654Y-63800828D01*
X118661654Y-63800828D02*
X118947368Y-63800828D01*
X118947368Y-63800828D02*
X119090225Y-63729400D01*
X119090225Y-63729400D02*
X119161654Y-63657971D01*
X119161654Y-63657971D02*
X119233082Y-63515114D01*
X119233082Y-63515114D02*
X119233082Y-62300828D01*
X119875940Y-63729400D02*
X120090226Y-63800828D01*
X120090226Y-63800828D02*
X120447368Y-63800828D01*
X120447368Y-63800828D02*
X120590226Y-63729400D01*
X120590226Y-63729400D02*
X120661654Y-63657971D01*
X120661654Y-63657971D02*
X120733083Y-63515114D01*
X120733083Y-63515114D02*
X120733083Y-63372257D01*
X120733083Y-63372257D02*
X120661654Y-63229400D01*
X120661654Y-63229400D02*
X120590226Y-63157971D01*
X120590226Y-63157971D02*
X120447368Y-63086542D01*
X120447368Y-63086542D02*
X120161654Y-63015114D01*
X120161654Y-63015114D02*
X120018797Y-62943685D01*
X120018797Y-62943685D02*
X119947368Y-62872257D01*
X119947368Y-62872257D02*
X119875940Y-62729400D01*
X119875940Y-62729400D02*
X119875940Y-62586542D01*
X119875940Y-62586542D02*
X119947368Y-62443685D01*
X119947368Y-62443685D02*
X120018797Y-62372257D01*
X120018797Y-62372257D02*
X120161654Y-62300828D01*
X120161654Y-62300828D02*
X120518797Y-62300828D01*
X120518797Y-62300828D02*
X120733083Y-62372257D01*
X121375939Y-63015114D02*
X121875939Y-63015114D01*
X122090225Y-63800828D02*
X121375939Y-63800828D01*
X121375939Y-63800828D02*
X121375939Y-62300828D01*
X121375939Y-62300828D02*
X122090225Y-62300828D01*
X124161654Y-62300828D02*
X124447368Y-62300828D01*
X124447368Y-62300828D02*
X124590225Y-62372257D01*
X124590225Y-62372257D02*
X124733082Y-62515114D01*
X124733082Y-62515114D02*
X124804511Y-62800828D01*
X124804511Y-62800828D02*
X124804511Y-63300828D01*
X124804511Y-63300828D02*
X124733082Y-63586542D01*
X124733082Y-63586542D02*
X124590225Y-63729400D01*
X124590225Y-63729400D02*
X124447368Y-63800828D01*
X124447368Y-63800828D02*
X124161654Y-63800828D01*
X124161654Y-63800828D02*
X124018797Y-63729400D01*
X124018797Y-63729400D02*
X123875939Y-63586542D01*
X123875939Y-63586542D02*
X123804511Y-63300828D01*
X123804511Y-63300828D02*
X123804511Y-62800828D01*
X123804511Y-62800828D02*
X123875939Y-62515114D01*
X123875939Y-62515114D02*
X124018797Y-62372257D01*
X124018797Y-62372257D02*
X124161654Y-62300828D01*
X125447368Y-63800828D02*
X125447368Y-62300828D01*
X125447368Y-62300828D02*
X126304511Y-63800828D01*
X126304511Y-63800828D02*
X126304511Y-62300828D01*
X127733083Y-63800828D02*
X127018797Y-63800828D01*
X127018797Y-63800828D02*
X127018797Y-62300828D01*
X128518798Y-63086542D02*
X128518798Y-63800828D01*
X128018798Y-62300828D02*
X128518798Y-63086542D01*
X128518798Y-63086542D02*
X129018798Y-62300828D01*
D11*
X105202568Y-81564619D02*
X105202568Y-80564619D01*
X105202568Y-80564619D02*
X105773996Y-81564619D01*
X105773996Y-81564619D02*
X105773996Y-80564619D01*
X106821615Y-81469380D02*
X106773996Y-81517000D01*
X106773996Y-81517000D02*
X106631139Y-81564619D01*
X106631139Y-81564619D02*
X106535901Y-81564619D01*
X106535901Y-81564619D02*
X106393044Y-81517000D01*
X106393044Y-81517000D02*
X106297806Y-81421761D01*
X106297806Y-81421761D02*
X106250187Y-81326523D01*
X106250187Y-81326523D02*
X106202568Y-81136047D01*
X106202568Y-81136047D02*
X106202568Y-80993190D01*
X106202568Y-80993190D02*
X106250187Y-80802714D01*
X106250187Y-80802714D02*
X106297806Y-80707476D01*
X106297806Y-80707476D02*
X106393044Y-80612238D01*
X106393044Y-80612238D02*
X106535901Y-80564619D01*
X106535901Y-80564619D02*
X106631139Y-80564619D01*
X106631139Y-80564619D02*
X106773996Y-80612238D01*
X106773996Y-80612238D02*
X106821615Y-80659857D01*
X107726377Y-81564619D02*
X107250187Y-81564619D01*
X107250187Y-81564619D02*
X107250187Y-80564619D01*
D10*
X112804510Y-59800828D02*
X112804510Y-61015114D01*
X112804510Y-61015114D02*
X112875939Y-61157971D01*
X112875939Y-61157971D02*
X112947368Y-61229400D01*
X112947368Y-61229400D02*
X113090225Y-61300828D01*
X113090225Y-61300828D02*
X113375939Y-61300828D01*
X113375939Y-61300828D02*
X113518796Y-61229400D01*
X113518796Y-61229400D02*
X113590225Y-61157971D01*
X113590225Y-61157971D02*
X113661653Y-61015114D01*
X113661653Y-61015114D02*
X113661653Y-59800828D01*
X114233082Y-59800828D02*
X114590225Y-61300828D01*
X114590225Y-61300828D02*
X114875939Y-60229400D01*
X114875939Y-60229400D02*
X115161654Y-61300828D01*
X115161654Y-61300828D02*
X115518797Y-59800828D01*
X118090225Y-61157971D02*
X118018797Y-61229400D01*
X118018797Y-61229400D02*
X117804511Y-61300828D01*
X117804511Y-61300828D02*
X117661654Y-61300828D01*
X117661654Y-61300828D02*
X117447368Y-61229400D01*
X117447368Y-61229400D02*
X117304511Y-61086542D01*
X117304511Y-61086542D02*
X117233082Y-60943685D01*
X117233082Y-60943685D02*
X117161654Y-60657971D01*
X117161654Y-60657971D02*
X117161654Y-60443685D01*
X117161654Y-60443685D02*
X117233082Y-60157971D01*
X117233082Y-60157971D02*
X117304511Y-60015114D01*
X117304511Y-60015114D02*
X117447368Y-59872257D01*
X117447368Y-59872257D02*
X117661654Y-59800828D01*
X117661654Y-59800828D02*
X117804511Y-59800828D01*
X117804511Y-59800828D02*
X118018797Y-59872257D01*
X118018797Y-59872257D02*
X118090225Y-59943685D01*
X119018797Y-60586542D02*
X119018797Y-61300828D01*
X118518797Y-59800828D02*
X119018797Y-60586542D01*
X119018797Y-60586542D02*
X119518797Y-59800828D01*
X120518796Y-60515114D02*
X120733082Y-60586542D01*
X120733082Y-60586542D02*
X120804511Y-60657971D01*
X120804511Y-60657971D02*
X120875939Y-60800828D01*
X120875939Y-60800828D02*
X120875939Y-61015114D01*
X120875939Y-61015114D02*
X120804511Y-61157971D01*
X120804511Y-61157971D02*
X120733082Y-61229400D01*
X120733082Y-61229400D02*
X120590225Y-61300828D01*
X120590225Y-61300828D02*
X120018796Y-61300828D01*
X120018796Y-61300828D02*
X120018796Y-59800828D01*
X120018796Y-59800828D02*
X120518796Y-59800828D01*
X120518796Y-59800828D02*
X120661654Y-59872257D01*
X120661654Y-59872257D02*
X120733082Y-59943685D01*
X120733082Y-59943685D02*
X120804511Y-60086542D01*
X120804511Y-60086542D02*
X120804511Y-60229400D01*
X120804511Y-60229400D02*
X120733082Y-60372257D01*
X120733082Y-60372257D02*
X120661654Y-60443685D01*
X120661654Y-60443685D02*
X120518796Y-60515114D01*
X120518796Y-60515114D02*
X120018796Y-60515114D01*
X121518796Y-60515114D02*
X122018796Y-60515114D01*
X122233082Y-61300828D02*
X121518796Y-61300828D01*
X121518796Y-61300828D02*
X121518796Y-59800828D01*
X121518796Y-59800828D02*
X122233082Y-59800828D01*
X123733082Y-61300828D02*
X123233082Y-60586542D01*
X122875939Y-61300828D02*
X122875939Y-59800828D01*
X122875939Y-59800828D02*
X123447368Y-59800828D01*
X123447368Y-59800828D02*
X123590225Y-59872257D01*
X123590225Y-59872257D02*
X123661654Y-59943685D01*
X123661654Y-59943685D02*
X123733082Y-60086542D01*
X123733082Y-60086542D02*
X123733082Y-60300828D01*
X123733082Y-60300828D02*
X123661654Y-60443685D01*
X123661654Y-60443685D02*
X123590225Y-60515114D01*
X123590225Y-60515114D02*
X123447368Y-60586542D01*
X123447368Y-60586542D02*
X122875939Y-60586542D01*
X124304511Y-61229400D02*
X124518797Y-61300828D01*
X124518797Y-61300828D02*
X124875939Y-61300828D01*
X124875939Y-61300828D02*
X125018797Y-61229400D01*
X125018797Y-61229400D02*
X125090225Y-61157971D01*
X125090225Y-61157971D02*
X125161654Y-61015114D01*
X125161654Y-61015114D02*
X125161654Y-60872257D01*
X125161654Y-60872257D02*
X125090225Y-60729400D01*
X125090225Y-60729400D02*
X125018797Y-60657971D01*
X125018797Y-60657971D02*
X124875939Y-60586542D01*
X124875939Y-60586542D02*
X124590225Y-60515114D01*
X124590225Y-60515114D02*
X124447368Y-60443685D01*
X124447368Y-60443685D02*
X124375939Y-60372257D01*
X124375939Y-60372257D02*
X124304511Y-60229400D01*
X124304511Y-60229400D02*
X124304511Y-60086542D01*
X124304511Y-60086542D02*
X124375939Y-59943685D01*
X124375939Y-59943685D02*
X124447368Y-59872257D01*
X124447368Y-59872257D02*
X124590225Y-59800828D01*
X124590225Y-59800828D02*
X124947368Y-59800828D01*
X124947368Y-59800828D02*
X125161654Y-59872257D01*
X125804510Y-60515114D02*
X126304510Y-60515114D01*
X126518796Y-61300828D02*
X125804510Y-61300828D01*
X125804510Y-61300828D02*
X125804510Y-59800828D01*
X125804510Y-59800828D02*
X126518796Y-59800828D01*
X128018796Y-61157971D02*
X127947368Y-61229400D01*
X127947368Y-61229400D02*
X127733082Y-61300828D01*
X127733082Y-61300828D02*
X127590225Y-61300828D01*
X127590225Y-61300828D02*
X127375939Y-61229400D01*
X127375939Y-61229400D02*
X127233082Y-61086542D01*
X127233082Y-61086542D02*
X127161653Y-60943685D01*
X127161653Y-60943685D02*
X127090225Y-60657971D01*
X127090225Y-60657971D02*
X127090225Y-60443685D01*
X127090225Y-60443685D02*
X127161653Y-60157971D01*
X127161653Y-60157971D02*
X127233082Y-60015114D01*
X127233082Y-60015114D02*
X127375939Y-59872257D01*
X127375939Y-59872257D02*
X127590225Y-59800828D01*
X127590225Y-59800828D02*
X127733082Y-59800828D01*
X127733082Y-59800828D02*
X127947368Y-59872257D01*
X127947368Y-59872257D02*
X128018796Y-59943685D01*
X129554510Y-78265114D02*
X129768796Y-78336542D01*
X129768796Y-78336542D02*
X129840225Y-78407971D01*
X129840225Y-78407971D02*
X129911653Y-78550828D01*
X129911653Y-78550828D02*
X129911653Y-78765114D01*
X129911653Y-78765114D02*
X129840225Y-78907971D01*
X129840225Y-78907971D02*
X129768796Y-78979400D01*
X129768796Y-78979400D02*
X129625939Y-79050828D01*
X129625939Y-79050828D02*
X129054510Y-79050828D01*
X129054510Y-79050828D02*
X129054510Y-77550828D01*
X129054510Y-77550828D02*
X129554510Y-77550828D01*
X129554510Y-77550828D02*
X129697368Y-77622257D01*
X129697368Y-77622257D02*
X129768796Y-77693685D01*
X129768796Y-77693685D02*
X129840225Y-77836542D01*
X129840225Y-77836542D02*
X129840225Y-77979400D01*
X129840225Y-77979400D02*
X129768796Y-78122257D01*
X129768796Y-78122257D02*
X129697368Y-78193685D01*
X129697368Y-78193685D02*
X129554510Y-78265114D01*
X129554510Y-78265114D02*
X129054510Y-78265114D01*
X130840225Y-77550828D02*
X131125939Y-77550828D01*
X131125939Y-77550828D02*
X131268796Y-77622257D01*
X131268796Y-77622257D02*
X131411653Y-77765114D01*
X131411653Y-77765114D02*
X131483082Y-78050828D01*
X131483082Y-78050828D02*
X131483082Y-78550828D01*
X131483082Y-78550828D02*
X131411653Y-78836542D01*
X131411653Y-78836542D02*
X131268796Y-78979400D01*
X131268796Y-78979400D02*
X131125939Y-79050828D01*
X131125939Y-79050828D02*
X130840225Y-79050828D01*
X130840225Y-79050828D02*
X130697368Y-78979400D01*
X130697368Y-78979400D02*
X130554510Y-78836542D01*
X130554510Y-78836542D02*
X130483082Y-78550828D01*
X130483082Y-78550828D02*
X130483082Y-78050828D01*
X130483082Y-78050828D02*
X130554510Y-77765114D01*
X130554510Y-77765114D02*
X130697368Y-77622257D01*
X130697368Y-77622257D02*
X130840225Y-77550828D01*
X132411654Y-77550828D02*
X132697368Y-77550828D01*
X132697368Y-77550828D02*
X132840225Y-77622257D01*
X132840225Y-77622257D02*
X132983082Y-77765114D01*
X132983082Y-77765114D02*
X133054511Y-78050828D01*
X133054511Y-78050828D02*
X133054511Y-78550828D01*
X133054511Y-78550828D02*
X132983082Y-78836542D01*
X132983082Y-78836542D02*
X132840225Y-78979400D01*
X132840225Y-78979400D02*
X132697368Y-79050828D01*
X132697368Y-79050828D02*
X132411654Y-79050828D01*
X132411654Y-79050828D02*
X132268797Y-78979400D01*
X132268797Y-78979400D02*
X132125939Y-78836542D01*
X132125939Y-78836542D02*
X132054511Y-78550828D01*
X132054511Y-78550828D02*
X132054511Y-78050828D01*
X132054511Y-78050828D02*
X132125939Y-77765114D01*
X132125939Y-77765114D02*
X132268797Y-77622257D01*
X132268797Y-77622257D02*
X132411654Y-77550828D01*
X133483083Y-77550828D02*
X134340226Y-77550828D01*
X133911654Y-79050828D02*
X133911654Y-77550828D01*
X164233082Y-53229400D02*
X164447368Y-53300828D01*
X164447368Y-53300828D02*
X164804510Y-53300828D01*
X164804510Y-53300828D02*
X164947368Y-53229400D01*
X164947368Y-53229400D02*
X165018796Y-53157971D01*
X165018796Y-53157971D02*
X165090225Y-53015114D01*
X165090225Y-53015114D02*
X165090225Y-52872257D01*
X165090225Y-52872257D02*
X165018796Y-52729400D01*
X165018796Y-52729400D02*
X164947368Y-52657971D01*
X164947368Y-52657971D02*
X164804510Y-52586542D01*
X164804510Y-52586542D02*
X164518796Y-52515114D01*
X164518796Y-52515114D02*
X164375939Y-52443685D01*
X164375939Y-52443685D02*
X164304510Y-52372257D01*
X164304510Y-52372257D02*
X164233082Y-52229400D01*
X164233082Y-52229400D02*
X164233082Y-52086542D01*
X164233082Y-52086542D02*
X164304510Y-51943685D01*
X164304510Y-51943685D02*
X164375939Y-51872257D01*
X164375939Y-51872257D02*
X164518796Y-51800828D01*
X164518796Y-51800828D02*
X164875939Y-51800828D01*
X164875939Y-51800828D02*
X165090225Y-51872257D01*
X166590224Y-53300828D02*
X166090224Y-52586542D01*
X165733081Y-53300828D02*
X165733081Y-51800828D01*
X165733081Y-51800828D02*
X166304510Y-51800828D01*
X166304510Y-51800828D02*
X166447367Y-51872257D01*
X166447367Y-51872257D02*
X166518796Y-51943685D01*
X166518796Y-51943685D02*
X166590224Y-52086542D01*
X166590224Y-52086542D02*
X166590224Y-52300828D01*
X166590224Y-52300828D02*
X166518796Y-52443685D01*
X166518796Y-52443685D02*
X166447367Y-52515114D01*
X166447367Y-52515114D02*
X166304510Y-52586542D01*
X166304510Y-52586542D02*
X165733081Y-52586542D01*
X167947367Y-53300828D02*
X167233081Y-53300828D01*
X167233081Y-53300828D02*
X167233081Y-51800828D01*
D12*
X156857142Y-62429580D02*
X156809523Y-62477200D01*
X156809523Y-62477200D02*
X156666666Y-62524819D01*
X156666666Y-62524819D02*
X156571428Y-62524819D01*
X156571428Y-62524819D02*
X156428571Y-62477200D01*
X156428571Y-62477200D02*
X156333333Y-62381961D01*
X156333333Y-62381961D02*
X156285714Y-62286723D01*
X156285714Y-62286723D02*
X156238095Y-62096247D01*
X156238095Y-62096247D02*
X156238095Y-61953390D01*
X156238095Y-61953390D02*
X156285714Y-61762914D01*
X156285714Y-61762914D02*
X156333333Y-61667676D01*
X156333333Y-61667676D02*
X156428571Y-61572438D01*
X156428571Y-61572438D02*
X156571428Y-61524819D01*
X156571428Y-61524819D02*
X156666666Y-61524819D01*
X156666666Y-61524819D02*
X156809523Y-61572438D01*
X156809523Y-61572438D02*
X156857142Y-61620057D01*
X157809523Y-62524819D02*
X157238095Y-62524819D01*
X157523809Y-62524819D02*
X157523809Y-61524819D01*
X157523809Y-61524819D02*
X157428571Y-61667676D01*
X157428571Y-61667676D02*
X157333333Y-61762914D01*
X157333333Y-61762914D02*
X157238095Y-61810533D01*
X158666666Y-61858152D02*
X158666666Y-62524819D01*
X158428571Y-61477200D02*
X158190476Y-62191485D01*
X158190476Y-62191485D02*
X158809523Y-62191485D01*
X165384519Y-67325833D02*
X166098804Y-67325833D01*
X166098804Y-67325833D02*
X166241661Y-67373452D01*
X166241661Y-67373452D02*
X166336900Y-67468690D01*
X166336900Y-67468690D02*
X166384519Y-67611547D01*
X166384519Y-67611547D02*
X166384519Y-67706785D01*
X166384519Y-66325833D02*
X166384519Y-66897261D01*
X166384519Y-66611547D02*
X165384519Y-66611547D01*
X165384519Y-66611547D02*
X165527376Y-66706785D01*
X165527376Y-66706785D02*
X165622614Y-66802023D01*
X165622614Y-66802023D02*
X165670233Y-66897261D01*
X150738095Y-69454819D02*
X150738095Y-70264342D01*
X150738095Y-70264342D02*
X150785714Y-70359580D01*
X150785714Y-70359580D02*
X150833333Y-70407200D01*
X150833333Y-70407200D02*
X150928571Y-70454819D01*
X150928571Y-70454819D02*
X151119047Y-70454819D01*
X151119047Y-70454819D02*
X151214285Y-70407200D01*
X151214285Y-70407200D02*
X151261904Y-70359580D01*
X151261904Y-70359580D02*
X151309523Y-70264342D01*
X151309523Y-70264342D02*
X151309523Y-69454819D01*
X152309523Y-70454819D02*
X151738095Y-70454819D01*
X152023809Y-70454819D02*
X152023809Y-69454819D01*
X152023809Y-69454819D02*
X151928571Y-69597676D01*
X151928571Y-69597676D02*
X151833333Y-69692914D01*
X151833333Y-69692914D02*
X151738095Y-69740533D01*
X146833333Y-75704819D02*
X146500000Y-75228628D01*
X146261905Y-75704819D02*
X146261905Y-74704819D01*
X146261905Y-74704819D02*
X146642857Y-74704819D01*
X146642857Y-74704819D02*
X146738095Y-74752438D01*
X146738095Y-74752438D02*
X146785714Y-74800057D01*
X146785714Y-74800057D02*
X146833333Y-74895295D01*
X146833333Y-74895295D02*
X146833333Y-75038152D01*
X146833333Y-75038152D02*
X146785714Y-75133390D01*
X146785714Y-75133390D02*
X146738095Y-75181009D01*
X146738095Y-75181009D02*
X146642857Y-75228628D01*
X146642857Y-75228628D02*
X146261905Y-75228628D01*
X147404762Y-75133390D02*
X147309524Y-75085771D01*
X147309524Y-75085771D02*
X147261905Y-75038152D01*
X147261905Y-75038152D02*
X147214286Y-74942914D01*
X147214286Y-74942914D02*
X147214286Y-74895295D01*
X147214286Y-74895295D02*
X147261905Y-74800057D01*
X147261905Y-74800057D02*
X147309524Y-74752438D01*
X147309524Y-74752438D02*
X147404762Y-74704819D01*
X147404762Y-74704819D02*
X147595238Y-74704819D01*
X147595238Y-74704819D02*
X147690476Y-74752438D01*
X147690476Y-74752438D02*
X147738095Y-74800057D01*
X147738095Y-74800057D02*
X147785714Y-74895295D01*
X147785714Y-74895295D02*
X147785714Y-74942914D01*
X147785714Y-74942914D02*
X147738095Y-75038152D01*
X147738095Y-75038152D02*
X147690476Y-75085771D01*
X147690476Y-75085771D02*
X147595238Y-75133390D01*
X147595238Y-75133390D02*
X147404762Y-75133390D01*
X147404762Y-75133390D02*
X147309524Y-75181009D01*
X147309524Y-75181009D02*
X147261905Y-75228628D01*
X147261905Y-75228628D02*
X147214286Y-75323866D01*
X147214286Y-75323866D02*
X147214286Y-75514342D01*
X147214286Y-75514342D02*
X147261905Y-75609580D01*
X147261905Y-75609580D02*
X147309524Y-75657200D01*
X147309524Y-75657200D02*
X147404762Y-75704819D01*
X147404762Y-75704819D02*
X147595238Y-75704819D01*
X147595238Y-75704819D02*
X147690476Y-75657200D01*
X147690476Y-75657200D02*
X147738095Y-75609580D01*
X147738095Y-75609580D02*
X147785714Y-75514342D01*
X147785714Y-75514342D02*
X147785714Y-75323866D01*
X147785714Y-75323866D02*
X147738095Y-75228628D01*
X147738095Y-75228628D02*
X147690476Y-75181009D01*
X147690476Y-75181009D02*
X147595238Y-75133390D01*
X144583333Y-75704819D02*
X144250000Y-75228628D01*
X144011905Y-75704819D02*
X144011905Y-74704819D01*
X144011905Y-74704819D02*
X144392857Y-74704819D01*
X144392857Y-74704819D02*
X144488095Y-74752438D01*
X144488095Y-74752438D02*
X144535714Y-74800057D01*
X144535714Y-74800057D02*
X144583333Y-74895295D01*
X144583333Y-74895295D02*
X144583333Y-75038152D01*
X144583333Y-75038152D02*
X144535714Y-75133390D01*
X144535714Y-75133390D02*
X144488095Y-75181009D01*
X144488095Y-75181009D02*
X144392857Y-75228628D01*
X144392857Y-75228628D02*
X144011905Y-75228628D01*
X144916667Y-74704819D02*
X145583333Y-74704819D01*
X145583333Y-74704819D02*
X145154762Y-75704819D01*
X161583332Y-53342800D02*
X161440475Y-53295180D01*
X161440475Y-53295180D02*
X161202380Y-53295180D01*
X161202380Y-53295180D02*
X161107142Y-53342800D01*
X161107142Y-53342800D02*
X161059523Y-53390419D01*
X161059523Y-53390419D02*
X161011904Y-53485657D01*
X161011904Y-53485657D02*
X161011904Y-53580895D01*
X161011904Y-53580895D02*
X161059523Y-53676133D01*
X161059523Y-53676133D02*
X161107142Y-53723752D01*
X161107142Y-53723752D02*
X161202380Y-53771371D01*
X161202380Y-53771371D02*
X161392856Y-53818990D01*
X161392856Y-53818990D02*
X161488094Y-53866609D01*
X161488094Y-53866609D02*
X161535713Y-53914228D01*
X161535713Y-53914228D02*
X161583332Y-54009466D01*
X161583332Y-54009466D02*
X161583332Y-54104704D01*
X161583332Y-54104704D02*
X161535713Y-54199942D01*
X161535713Y-54199942D02*
X161488094Y-54247561D01*
X161488094Y-54247561D02*
X161392856Y-54295180D01*
X161392856Y-54295180D02*
X161154761Y-54295180D01*
X161154761Y-54295180D02*
X161011904Y-54247561D01*
X160678570Y-54295180D02*
X160440475Y-53295180D01*
X160440475Y-53295180D02*
X160249999Y-54009466D01*
X160249999Y-54009466D02*
X160059523Y-53295180D01*
X160059523Y-53295180D02*
X159821428Y-54295180D01*
X159488094Y-54199942D02*
X159440475Y-54247561D01*
X159440475Y-54247561D02*
X159345237Y-54295180D01*
X159345237Y-54295180D02*
X159107142Y-54295180D01*
X159107142Y-54295180D02*
X159011904Y-54247561D01*
X159011904Y-54247561D02*
X158964285Y-54199942D01*
X158964285Y-54199942D02*
X158916666Y-54104704D01*
X158916666Y-54104704D02*
X158916666Y-54009466D01*
X158916666Y-54009466D02*
X158964285Y-53866609D01*
X158964285Y-53866609D02*
X159535713Y-53295180D01*
X159535713Y-53295180D02*
X158916666Y-53295180D01*
X161333333Y-57804819D02*
X161000000Y-57328628D01*
X160761905Y-57804819D02*
X160761905Y-56804819D01*
X160761905Y-56804819D02*
X161142857Y-56804819D01*
X161142857Y-56804819D02*
X161238095Y-56852438D01*
X161238095Y-56852438D02*
X161285714Y-56900057D01*
X161285714Y-56900057D02*
X161333333Y-56995295D01*
X161333333Y-56995295D02*
X161333333Y-57138152D01*
X161333333Y-57138152D02*
X161285714Y-57233390D01*
X161285714Y-57233390D02*
X161238095Y-57281009D01*
X161238095Y-57281009D02*
X161142857Y-57328628D01*
X161142857Y-57328628D02*
X160761905Y-57328628D01*
X162190476Y-56804819D02*
X162000000Y-56804819D01*
X162000000Y-56804819D02*
X161904762Y-56852438D01*
X161904762Y-56852438D02*
X161857143Y-56900057D01*
X161857143Y-56900057D02*
X161761905Y-57042914D01*
X161761905Y-57042914D02*
X161714286Y-57233390D01*
X161714286Y-57233390D02*
X161714286Y-57614342D01*
X161714286Y-57614342D02*
X161761905Y-57709580D01*
X161761905Y-57709580D02*
X161809524Y-57757200D01*
X161809524Y-57757200D02*
X161904762Y-57804819D01*
X161904762Y-57804819D02*
X162095238Y-57804819D01*
X162095238Y-57804819D02*
X162190476Y-57757200D01*
X162190476Y-57757200D02*
X162238095Y-57709580D01*
X162238095Y-57709580D02*
X162285714Y-57614342D01*
X162285714Y-57614342D02*
X162285714Y-57376247D01*
X162285714Y-57376247D02*
X162238095Y-57281009D01*
X162238095Y-57281009D02*
X162190476Y-57233390D01*
X162190476Y-57233390D02*
X162095238Y-57185771D01*
X162095238Y-57185771D02*
X161904762Y-57185771D01*
X161904762Y-57185771D02*
X161809524Y-57233390D01*
X161809524Y-57233390D02*
X161761905Y-57281009D01*
X161761905Y-57281009D02*
X161714286Y-57376247D01*
X143083333Y-58409580D02*
X143035714Y-58457200D01*
X143035714Y-58457200D02*
X142892857Y-58504819D01*
X142892857Y-58504819D02*
X142797619Y-58504819D01*
X142797619Y-58504819D02*
X142654762Y-58457200D01*
X142654762Y-58457200D02*
X142559524Y-58361961D01*
X142559524Y-58361961D02*
X142511905Y-58266723D01*
X142511905Y-58266723D02*
X142464286Y-58076247D01*
X142464286Y-58076247D02*
X142464286Y-57933390D01*
X142464286Y-57933390D02*
X142511905Y-57742914D01*
X142511905Y-57742914D02*
X142559524Y-57647676D01*
X142559524Y-57647676D02*
X142654762Y-57552438D01*
X142654762Y-57552438D02*
X142797619Y-57504819D01*
X142797619Y-57504819D02*
X142892857Y-57504819D01*
X142892857Y-57504819D02*
X143035714Y-57552438D01*
X143035714Y-57552438D02*
X143083333Y-57600057D01*
X143464286Y-57600057D02*
X143511905Y-57552438D01*
X143511905Y-57552438D02*
X143607143Y-57504819D01*
X143607143Y-57504819D02*
X143845238Y-57504819D01*
X143845238Y-57504819D02*
X143940476Y-57552438D01*
X143940476Y-57552438D02*
X143988095Y-57600057D01*
X143988095Y-57600057D02*
X144035714Y-57695295D01*
X144035714Y-57695295D02*
X144035714Y-57790533D01*
X144035714Y-57790533D02*
X143988095Y-57933390D01*
X143988095Y-57933390D02*
X143416667Y-58504819D01*
X143416667Y-58504819D02*
X144035714Y-58504819D01*
X137159580Y-61766666D02*
X137207200Y-61814285D01*
X137207200Y-61814285D02*
X137254819Y-61957142D01*
X137254819Y-61957142D02*
X137254819Y-62052380D01*
X137254819Y-62052380D02*
X137207200Y-62195237D01*
X137207200Y-62195237D02*
X137111961Y-62290475D01*
X137111961Y-62290475D02*
X137016723Y-62338094D01*
X137016723Y-62338094D02*
X136826247Y-62385713D01*
X136826247Y-62385713D02*
X136683390Y-62385713D01*
X136683390Y-62385713D02*
X136492914Y-62338094D01*
X136492914Y-62338094D02*
X136397676Y-62290475D01*
X136397676Y-62290475D02*
X136302438Y-62195237D01*
X136302438Y-62195237D02*
X136254819Y-62052380D01*
X136254819Y-62052380D02*
X136254819Y-61957142D01*
X136254819Y-61957142D02*
X136302438Y-61814285D01*
X136302438Y-61814285D02*
X136350057Y-61766666D01*
X136254819Y-60861904D02*
X136254819Y-61338094D01*
X136254819Y-61338094D02*
X136731009Y-61385713D01*
X136731009Y-61385713D02*
X136683390Y-61338094D01*
X136683390Y-61338094D02*
X136635771Y-61242856D01*
X136635771Y-61242856D02*
X136635771Y-61004761D01*
X136635771Y-61004761D02*
X136683390Y-60909523D01*
X136683390Y-60909523D02*
X136731009Y-60861904D01*
X136731009Y-60861904D02*
X136826247Y-60814285D01*
X136826247Y-60814285D02*
X137064342Y-60814285D01*
X137064342Y-60814285D02*
X137159580Y-60861904D01*
X137159580Y-60861904D02*
X137207200Y-60909523D01*
X137207200Y-60909523D02*
X137254819Y-61004761D01*
X137254819Y-61004761D02*
X137254819Y-61242856D01*
X137254819Y-61242856D02*
X137207200Y-61338094D01*
X137207200Y-61338094D02*
X137159580Y-61385713D01*
X122054819Y-75161904D02*
X122864342Y-75161904D01*
X122864342Y-75161904D02*
X122959580Y-75114285D01*
X122959580Y-75114285D02*
X123007200Y-75066666D01*
X123007200Y-75066666D02*
X123054819Y-74971428D01*
X123054819Y-74971428D02*
X123054819Y-74780952D01*
X123054819Y-74780952D02*
X123007200Y-74685714D01*
X123007200Y-74685714D02*
X122959580Y-74638095D01*
X122959580Y-74638095D02*
X122864342Y-74590476D01*
X122864342Y-74590476D02*
X122054819Y-74590476D01*
X122388152Y-73685714D02*
X123054819Y-73685714D01*
X122007200Y-73923809D02*
X122721485Y-74161904D01*
X122721485Y-74161904D02*
X122721485Y-73542857D01*
X133133332Y-74792800D02*
X132990475Y-74745180D01*
X132990475Y-74745180D02*
X132752380Y-74745180D01*
X132752380Y-74745180D02*
X132657142Y-74792800D01*
X132657142Y-74792800D02*
X132609523Y-74840419D01*
X132609523Y-74840419D02*
X132561904Y-74935657D01*
X132561904Y-74935657D02*
X132561904Y-75030895D01*
X132561904Y-75030895D02*
X132609523Y-75126133D01*
X132609523Y-75126133D02*
X132657142Y-75173752D01*
X132657142Y-75173752D02*
X132752380Y-75221371D01*
X132752380Y-75221371D02*
X132942856Y-75268990D01*
X132942856Y-75268990D02*
X133038094Y-75316609D01*
X133038094Y-75316609D02*
X133085713Y-75364228D01*
X133085713Y-75364228D02*
X133133332Y-75459466D01*
X133133332Y-75459466D02*
X133133332Y-75554704D01*
X133133332Y-75554704D02*
X133085713Y-75649942D01*
X133085713Y-75649942D02*
X133038094Y-75697561D01*
X133038094Y-75697561D02*
X132942856Y-75745180D01*
X132942856Y-75745180D02*
X132704761Y-75745180D01*
X132704761Y-75745180D02*
X132561904Y-75697561D01*
X132228570Y-75745180D02*
X131990475Y-74745180D01*
X131990475Y-74745180D02*
X131799999Y-75459466D01*
X131799999Y-75459466D02*
X131609523Y-74745180D01*
X131609523Y-74745180D02*
X131371428Y-75745180D01*
X130466666Y-74745180D02*
X131038094Y-74745180D01*
X130752380Y-74745180D02*
X130752380Y-75745180D01*
X130752380Y-75745180D02*
X130847618Y-75602323D01*
X130847618Y-75602323D02*
X130942856Y-75507085D01*
X130942856Y-75507085D02*
X131038094Y-75459466D01*
X160023809Y-66978628D02*
X160023809Y-67454819D01*
X159690476Y-66454819D02*
X160023809Y-66978628D01*
X160023809Y-66978628D02*
X160357142Y-66454819D01*
X161214285Y-67454819D02*
X160642857Y-67454819D01*
X160928571Y-67454819D02*
X160928571Y-66454819D01*
X160928571Y-66454819D02*
X160833333Y-66597676D01*
X160833333Y-66597676D02*
X160738095Y-66692914D01*
X160738095Y-66692914D02*
X160642857Y-66740533D01*
X118238095Y-49954819D02*
X118238095Y-50764342D01*
X118238095Y-50764342D02*
X118285714Y-50859580D01*
X118285714Y-50859580D02*
X118333333Y-50907200D01*
X118333333Y-50907200D02*
X118428571Y-50954819D01*
X118428571Y-50954819D02*
X118619047Y-50954819D01*
X118619047Y-50954819D02*
X118714285Y-50907200D01*
X118714285Y-50907200D02*
X118761904Y-50859580D01*
X118761904Y-50859580D02*
X118809523Y-50764342D01*
X118809523Y-50764342D02*
X118809523Y-49954819D01*
X119238095Y-50050057D02*
X119285714Y-50002438D01*
X119285714Y-50002438D02*
X119380952Y-49954819D01*
X119380952Y-49954819D02*
X119619047Y-49954819D01*
X119619047Y-49954819D02*
X119714285Y-50002438D01*
X119714285Y-50002438D02*
X119761904Y-50050057D01*
X119761904Y-50050057D02*
X119809523Y-50145295D01*
X119809523Y-50145295D02*
X119809523Y-50240533D01*
X119809523Y-50240533D02*
X119761904Y-50383390D01*
X119761904Y-50383390D02*
X119190476Y-50954819D01*
X119190476Y-50954819D02*
X119809523Y-50954819D01*
X153333333Y-68154819D02*
X153000000Y-67678628D01*
X152761905Y-68154819D02*
X152761905Y-67154819D01*
X152761905Y-67154819D02*
X153142857Y-67154819D01*
X153142857Y-67154819D02*
X153238095Y-67202438D01*
X153238095Y-67202438D02*
X153285714Y-67250057D01*
X153285714Y-67250057D02*
X153333333Y-67345295D01*
X153333333Y-67345295D02*
X153333333Y-67488152D01*
X153333333Y-67488152D02*
X153285714Y-67583390D01*
X153285714Y-67583390D02*
X153238095Y-67631009D01*
X153238095Y-67631009D02*
X153142857Y-67678628D01*
X153142857Y-67678628D02*
X152761905Y-67678628D01*
X154238095Y-67154819D02*
X153761905Y-67154819D01*
X153761905Y-67154819D02*
X153714286Y-67631009D01*
X153714286Y-67631009D02*
X153761905Y-67583390D01*
X153761905Y-67583390D02*
X153857143Y-67535771D01*
X153857143Y-67535771D02*
X154095238Y-67535771D01*
X154095238Y-67535771D02*
X154190476Y-67583390D01*
X154190476Y-67583390D02*
X154238095Y-67631009D01*
X154238095Y-67631009D02*
X154285714Y-67726247D01*
X154285714Y-67726247D02*
X154285714Y-67964342D01*
X154285714Y-67964342D02*
X154238095Y-68059580D01*
X154238095Y-68059580D02*
X154190476Y-68107200D01*
X154190476Y-68107200D02*
X154095238Y-68154819D01*
X154095238Y-68154819D02*
X153857143Y-68154819D01*
X153857143Y-68154819D02*
X153761905Y-68107200D01*
X153761905Y-68107200D02*
X153714286Y-68059580D01*
X138833333Y-79204819D02*
X138500000Y-78728628D01*
X138261905Y-79204819D02*
X138261905Y-78204819D01*
X138261905Y-78204819D02*
X138642857Y-78204819D01*
X138642857Y-78204819D02*
X138738095Y-78252438D01*
X138738095Y-78252438D02*
X138785714Y-78300057D01*
X138785714Y-78300057D02*
X138833333Y-78395295D01*
X138833333Y-78395295D02*
X138833333Y-78538152D01*
X138833333Y-78538152D02*
X138785714Y-78633390D01*
X138785714Y-78633390D02*
X138738095Y-78681009D01*
X138738095Y-78681009D02*
X138642857Y-78728628D01*
X138642857Y-78728628D02*
X138261905Y-78728628D01*
X139690476Y-78538152D02*
X139690476Y-79204819D01*
X139452381Y-78157200D02*
X139214286Y-78871485D01*
X139214286Y-78871485D02*
X139833333Y-78871485D01*
X138833333Y-75854819D02*
X138500000Y-75378628D01*
X138261905Y-75854819D02*
X138261905Y-74854819D01*
X138261905Y-74854819D02*
X138642857Y-74854819D01*
X138642857Y-74854819D02*
X138738095Y-74902438D01*
X138738095Y-74902438D02*
X138785714Y-74950057D01*
X138785714Y-74950057D02*
X138833333Y-75045295D01*
X138833333Y-75045295D02*
X138833333Y-75188152D01*
X138833333Y-75188152D02*
X138785714Y-75283390D01*
X138785714Y-75283390D02*
X138738095Y-75331009D01*
X138738095Y-75331009D02*
X138642857Y-75378628D01*
X138642857Y-75378628D02*
X138261905Y-75378628D01*
X139166667Y-74854819D02*
X139785714Y-74854819D01*
X139785714Y-74854819D02*
X139452381Y-75235771D01*
X139452381Y-75235771D02*
X139595238Y-75235771D01*
X139595238Y-75235771D02*
X139690476Y-75283390D01*
X139690476Y-75283390D02*
X139738095Y-75331009D01*
X139738095Y-75331009D02*
X139785714Y-75426247D01*
X139785714Y-75426247D02*
X139785714Y-75664342D01*
X139785714Y-75664342D02*
X139738095Y-75759580D01*
X139738095Y-75759580D02*
X139690476Y-75807200D01*
X139690476Y-75807200D02*
X139595238Y-75854819D01*
X139595238Y-75854819D02*
X139309524Y-75854819D01*
X139309524Y-75854819D02*
X139214286Y-75807200D01*
X139214286Y-75807200D02*
X139166667Y-75759580D01*
X133733333Y-67204819D02*
X133400000Y-66728628D01*
X133161905Y-67204819D02*
X133161905Y-66204819D01*
X133161905Y-66204819D02*
X133542857Y-66204819D01*
X133542857Y-66204819D02*
X133638095Y-66252438D01*
X133638095Y-66252438D02*
X133685714Y-66300057D01*
X133685714Y-66300057D02*
X133733333Y-66395295D01*
X133733333Y-66395295D02*
X133733333Y-66538152D01*
X133733333Y-66538152D02*
X133685714Y-66633390D01*
X133685714Y-66633390D02*
X133638095Y-66681009D01*
X133638095Y-66681009D02*
X133542857Y-66728628D01*
X133542857Y-66728628D02*
X133161905Y-66728628D01*
X134114286Y-66300057D02*
X134161905Y-66252438D01*
X134161905Y-66252438D02*
X134257143Y-66204819D01*
X134257143Y-66204819D02*
X134495238Y-66204819D01*
X134495238Y-66204819D02*
X134590476Y-66252438D01*
X134590476Y-66252438D02*
X134638095Y-66300057D01*
X134638095Y-66300057D02*
X134685714Y-66395295D01*
X134685714Y-66395295D02*
X134685714Y-66490533D01*
X134685714Y-66490533D02*
X134638095Y-66633390D01*
X134638095Y-66633390D02*
X134066667Y-67204819D01*
X134066667Y-67204819D02*
X134685714Y-67204819D01*
X133783333Y-69054819D02*
X133450000Y-68578628D01*
X133211905Y-69054819D02*
X133211905Y-68054819D01*
X133211905Y-68054819D02*
X133592857Y-68054819D01*
X133592857Y-68054819D02*
X133688095Y-68102438D01*
X133688095Y-68102438D02*
X133735714Y-68150057D01*
X133735714Y-68150057D02*
X133783333Y-68245295D01*
X133783333Y-68245295D02*
X133783333Y-68388152D01*
X133783333Y-68388152D02*
X133735714Y-68483390D01*
X133735714Y-68483390D02*
X133688095Y-68531009D01*
X133688095Y-68531009D02*
X133592857Y-68578628D01*
X133592857Y-68578628D02*
X133211905Y-68578628D01*
X134735714Y-69054819D02*
X134164286Y-69054819D01*
X134450000Y-69054819D02*
X134450000Y-68054819D01*
X134450000Y-68054819D02*
X134354762Y-68197676D01*
X134354762Y-68197676D02*
X134259524Y-68292914D01*
X134259524Y-68292914D02*
X134164286Y-68340533D01*
X116679580Y-73142857D02*
X116727200Y-73190476D01*
X116727200Y-73190476D02*
X116774819Y-73333333D01*
X116774819Y-73333333D02*
X116774819Y-73428571D01*
X116774819Y-73428571D02*
X116727200Y-73571428D01*
X116727200Y-73571428D02*
X116631961Y-73666666D01*
X116631961Y-73666666D02*
X116536723Y-73714285D01*
X116536723Y-73714285D02*
X116346247Y-73761904D01*
X116346247Y-73761904D02*
X116203390Y-73761904D01*
X116203390Y-73761904D02*
X116012914Y-73714285D01*
X116012914Y-73714285D02*
X115917676Y-73666666D01*
X115917676Y-73666666D02*
X115822438Y-73571428D01*
X115822438Y-73571428D02*
X115774819Y-73428571D01*
X115774819Y-73428571D02*
X115774819Y-73333333D01*
X115774819Y-73333333D02*
X115822438Y-73190476D01*
X115822438Y-73190476D02*
X115870057Y-73142857D01*
X116774819Y-72190476D02*
X116774819Y-72761904D01*
X116774819Y-72476190D02*
X115774819Y-72476190D01*
X115774819Y-72476190D02*
X115917676Y-72571428D01*
X115917676Y-72571428D02*
X116012914Y-72666666D01*
X116012914Y-72666666D02*
X116060533Y-72761904D01*
X115774819Y-71857142D02*
X115774819Y-71190476D01*
X115774819Y-71190476D02*
X116774819Y-71619047D01*
X125607142Y-53359580D02*
X125559523Y-53407200D01*
X125559523Y-53407200D02*
X125416666Y-53454819D01*
X125416666Y-53454819D02*
X125321428Y-53454819D01*
X125321428Y-53454819D02*
X125178571Y-53407200D01*
X125178571Y-53407200D02*
X125083333Y-53311961D01*
X125083333Y-53311961D02*
X125035714Y-53216723D01*
X125035714Y-53216723D02*
X124988095Y-53026247D01*
X124988095Y-53026247D02*
X124988095Y-52883390D01*
X124988095Y-52883390D02*
X125035714Y-52692914D01*
X125035714Y-52692914D02*
X125083333Y-52597676D01*
X125083333Y-52597676D02*
X125178571Y-52502438D01*
X125178571Y-52502438D02*
X125321428Y-52454819D01*
X125321428Y-52454819D02*
X125416666Y-52454819D01*
X125416666Y-52454819D02*
X125559523Y-52502438D01*
X125559523Y-52502438D02*
X125607142Y-52550057D01*
X126559523Y-53454819D02*
X125988095Y-53454819D01*
X126273809Y-53454819D02*
X126273809Y-52454819D01*
X126273809Y-52454819D02*
X126178571Y-52597676D01*
X126178571Y-52597676D02*
X126083333Y-52692914D01*
X126083333Y-52692914D02*
X125988095Y-52740533D01*
X127416666Y-52454819D02*
X127226190Y-52454819D01*
X127226190Y-52454819D02*
X127130952Y-52502438D01*
X127130952Y-52502438D02*
X127083333Y-52550057D01*
X127083333Y-52550057D02*
X126988095Y-52692914D01*
X126988095Y-52692914D02*
X126940476Y-52883390D01*
X126940476Y-52883390D02*
X126940476Y-53264342D01*
X126940476Y-53264342D02*
X126988095Y-53359580D01*
X126988095Y-53359580D02*
X127035714Y-53407200D01*
X127035714Y-53407200D02*
X127130952Y-53454819D01*
X127130952Y-53454819D02*
X127321428Y-53454819D01*
X127321428Y-53454819D02*
X127416666Y-53407200D01*
X127416666Y-53407200D02*
X127464285Y-53359580D01*
X127464285Y-53359580D02*
X127511904Y-53264342D01*
X127511904Y-53264342D02*
X127511904Y-53026247D01*
X127511904Y-53026247D02*
X127464285Y-52931009D01*
X127464285Y-52931009D02*
X127416666Y-52883390D01*
X127416666Y-52883390D02*
X127321428Y-52835771D01*
X127321428Y-52835771D02*
X127130952Y-52835771D01*
X127130952Y-52835771D02*
X127035714Y-52883390D01*
X127035714Y-52883390D02*
X126988095Y-52931009D01*
X126988095Y-52931009D02*
X126940476Y-53026247D01*
X110357142Y-53359580D02*
X110309523Y-53407200D01*
X110309523Y-53407200D02*
X110166666Y-53454819D01*
X110166666Y-53454819D02*
X110071428Y-53454819D01*
X110071428Y-53454819D02*
X109928571Y-53407200D01*
X109928571Y-53407200D02*
X109833333Y-53311961D01*
X109833333Y-53311961D02*
X109785714Y-53216723D01*
X109785714Y-53216723D02*
X109738095Y-53026247D01*
X109738095Y-53026247D02*
X109738095Y-52883390D01*
X109738095Y-52883390D02*
X109785714Y-52692914D01*
X109785714Y-52692914D02*
X109833333Y-52597676D01*
X109833333Y-52597676D02*
X109928571Y-52502438D01*
X109928571Y-52502438D02*
X110071428Y-52454819D01*
X110071428Y-52454819D02*
X110166666Y-52454819D01*
X110166666Y-52454819D02*
X110309523Y-52502438D01*
X110309523Y-52502438D02*
X110357142Y-52550057D01*
X111309523Y-53454819D02*
X110738095Y-53454819D01*
X111023809Y-53454819D02*
X111023809Y-52454819D01*
X111023809Y-52454819D02*
X110928571Y-52597676D01*
X110928571Y-52597676D02*
X110833333Y-52692914D01*
X110833333Y-52692914D02*
X110738095Y-52740533D01*
X112214285Y-52454819D02*
X111738095Y-52454819D01*
X111738095Y-52454819D02*
X111690476Y-52931009D01*
X111690476Y-52931009D02*
X111738095Y-52883390D01*
X111738095Y-52883390D02*
X111833333Y-52835771D01*
X111833333Y-52835771D02*
X112071428Y-52835771D01*
X112071428Y-52835771D02*
X112166666Y-52883390D01*
X112166666Y-52883390D02*
X112214285Y-52931009D01*
X112214285Y-52931009D02*
X112261904Y-53026247D01*
X112261904Y-53026247D02*
X112261904Y-53264342D01*
X112261904Y-53264342D02*
X112214285Y-53359580D01*
X112214285Y-53359580D02*
X112166666Y-53407200D01*
X112166666Y-53407200D02*
X112071428Y-53454819D01*
X112071428Y-53454819D02*
X111833333Y-53454819D01*
X111833333Y-53454819D02*
X111738095Y-53407200D01*
X111738095Y-53407200D02*
X111690476Y-53359580D01*
X156857142Y-72609580D02*
X156809523Y-72657200D01*
X156809523Y-72657200D02*
X156666666Y-72704819D01*
X156666666Y-72704819D02*
X156571428Y-72704819D01*
X156571428Y-72704819D02*
X156428571Y-72657200D01*
X156428571Y-72657200D02*
X156333333Y-72561961D01*
X156333333Y-72561961D02*
X156285714Y-72466723D01*
X156285714Y-72466723D02*
X156238095Y-72276247D01*
X156238095Y-72276247D02*
X156238095Y-72133390D01*
X156238095Y-72133390D02*
X156285714Y-71942914D01*
X156285714Y-71942914D02*
X156333333Y-71847676D01*
X156333333Y-71847676D02*
X156428571Y-71752438D01*
X156428571Y-71752438D02*
X156571428Y-71704819D01*
X156571428Y-71704819D02*
X156666666Y-71704819D01*
X156666666Y-71704819D02*
X156809523Y-71752438D01*
X156809523Y-71752438D02*
X156857142Y-71800057D01*
X157809523Y-72704819D02*
X157238095Y-72704819D01*
X157523809Y-72704819D02*
X157523809Y-71704819D01*
X157523809Y-71704819D02*
X157428571Y-71847676D01*
X157428571Y-71847676D02*
X157333333Y-71942914D01*
X157333333Y-71942914D02*
X157238095Y-71990533D01*
X158142857Y-71704819D02*
X158761904Y-71704819D01*
X158761904Y-71704819D02*
X158428571Y-72085771D01*
X158428571Y-72085771D02*
X158571428Y-72085771D01*
X158571428Y-72085771D02*
X158666666Y-72133390D01*
X158666666Y-72133390D02*
X158714285Y-72181009D01*
X158714285Y-72181009D02*
X158761904Y-72276247D01*
X158761904Y-72276247D02*
X158761904Y-72514342D01*
X158761904Y-72514342D02*
X158714285Y-72609580D01*
X158714285Y-72609580D02*
X158666666Y-72657200D01*
X158666666Y-72657200D02*
X158571428Y-72704819D01*
X158571428Y-72704819D02*
X158285714Y-72704819D01*
X158285714Y-72704819D02*
X158190476Y-72657200D01*
X158190476Y-72657200D02*
X158142857Y-72609580D01*
X147857142Y-58359580D02*
X147809523Y-58407200D01*
X147809523Y-58407200D02*
X147666666Y-58454819D01*
X147666666Y-58454819D02*
X147571428Y-58454819D01*
X147571428Y-58454819D02*
X147428571Y-58407200D01*
X147428571Y-58407200D02*
X147333333Y-58311961D01*
X147333333Y-58311961D02*
X147285714Y-58216723D01*
X147285714Y-58216723D02*
X147238095Y-58026247D01*
X147238095Y-58026247D02*
X147238095Y-57883390D01*
X147238095Y-57883390D02*
X147285714Y-57692914D01*
X147285714Y-57692914D02*
X147333333Y-57597676D01*
X147333333Y-57597676D02*
X147428571Y-57502438D01*
X147428571Y-57502438D02*
X147571428Y-57454819D01*
X147571428Y-57454819D02*
X147666666Y-57454819D01*
X147666666Y-57454819D02*
X147809523Y-57502438D01*
X147809523Y-57502438D02*
X147857142Y-57550057D01*
X148809523Y-58454819D02*
X148238095Y-58454819D01*
X148523809Y-58454819D02*
X148523809Y-57454819D01*
X148523809Y-57454819D02*
X148428571Y-57597676D01*
X148428571Y-57597676D02*
X148333333Y-57692914D01*
X148333333Y-57692914D02*
X148238095Y-57740533D01*
X149190476Y-57550057D02*
X149238095Y-57502438D01*
X149238095Y-57502438D02*
X149333333Y-57454819D01*
X149333333Y-57454819D02*
X149571428Y-57454819D01*
X149571428Y-57454819D02*
X149666666Y-57502438D01*
X149666666Y-57502438D02*
X149714285Y-57550057D01*
X149714285Y-57550057D02*
X149761904Y-57645295D01*
X149761904Y-57645295D02*
X149761904Y-57740533D01*
X149761904Y-57740533D02*
X149714285Y-57883390D01*
X149714285Y-57883390D02*
X149142857Y-58454819D01*
X149142857Y-58454819D02*
X149761904Y-58454819D01*
X145107142Y-58359580D02*
X145059523Y-58407200D01*
X145059523Y-58407200D02*
X144916666Y-58454819D01*
X144916666Y-58454819D02*
X144821428Y-58454819D01*
X144821428Y-58454819D02*
X144678571Y-58407200D01*
X144678571Y-58407200D02*
X144583333Y-58311961D01*
X144583333Y-58311961D02*
X144535714Y-58216723D01*
X144535714Y-58216723D02*
X144488095Y-58026247D01*
X144488095Y-58026247D02*
X144488095Y-57883390D01*
X144488095Y-57883390D02*
X144535714Y-57692914D01*
X144535714Y-57692914D02*
X144583333Y-57597676D01*
X144583333Y-57597676D02*
X144678571Y-57502438D01*
X144678571Y-57502438D02*
X144821428Y-57454819D01*
X144821428Y-57454819D02*
X144916666Y-57454819D01*
X144916666Y-57454819D02*
X145059523Y-57502438D01*
X145059523Y-57502438D02*
X145107142Y-57550057D01*
X146059523Y-58454819D02*
X145488095Y-58454819D01*
X145773809Y-58454819D02*
X145773809Y-57454819D01*
X145773809Y-57454819D02*
X145678571Y-57597676D01*
X145678571Y-57597676D02*
X145583333Y-57692914D01*
X145583333Y-57692914D02*
X145488095Y-57740533D01*
X147011904Y-58454819D02*
X146440476Y-58454819D01*
X146726190Y-58454819D02*
X146726190Y-57454819D01*
X146726190Y-57454819D02*
X146630952Y-57597676D01*
X146630952Y-57597676D02*
X146535714Y-57692914D01*
X146535714Y-57692914D02*
X146440476Y-57740533D01*
X153357142Y-75609580D02*
X153309523Y-75657200D01*
X153309523Y-75657200D02*
X153166666Y-75704819D01*
X153166666Y-75704819D02*
X153071428Y-75704819D01*
X153071428Y-75704819D02*
X152928571Y-75657200D01*
X152928571Y-75657200D02*
X152833333Y-75561961D01*
X152833333Y-75561961D02*
X152785714Y-75466723D01*
X152785714Y-75466723D02*
X152738095Y-75276247D01*
X152738095Y-75276247D02*
X152738095Y-75133390D01*
X152738095Y-75133390D02*
X152785714Y-74942914D01*
X152785714Y-74942914D02*
X152833333Y-74847676D01*
X152833333Y-74847676D02*
X152928571Y-74752438D01*
X152928571Y-74752438D02*
X153071428Y-74704819D01*
X153071428Y-74704819D02*
X153166666Y-74704819D01*
X153166666Y-74704819D02*
X153309523Y-74752438D01*
X153309523Y-74752438D02*
X153357142Y-74800057D01*
X154309523Y-75704819D02*
X153738095Y-75704819D01*
X154023809Y-75704819D02*
X154023809Y-74704819D01*
X154023809Y-74704819D02*
X153928571Y-74847676D01*
X153928571Y-74847676D02*
X153833333Y-74942914D01*
X153833333Y-74942914D02*
X153738095Y-74990533D01*
X154928571Y-74704819D02*
X155023809Y-74704819D01*
X155023809Y-74704819D02*
X155119047Y-74752438D01*
X155119047Y-74752438D02*
X155166666Y-74800057D01*
X155166666Y-74800057D02*
X155214285Y-74895295D01*
X155214285Y-74895295D02*
X155261904Y-75085771D01*
X155261904Y-75085771D02*
X155261904Y-75323866D01*
X155261904Y-75323866D02*
X155214285Y-75514342D01*
X155214285Y-75514342D02*
X155166666Y-75609580D01*
X155166666Y-75609580D02*
X155119047Y-75657200D01*
X155119047Y-75657200D02*
X155023809Y-75704819D01*
X155023809Y-75704819D02*
X154928571Y-75704819D01*
X154928571Y-75704819D02*
X154833333Y-75657200D01*
X154833333Y-75657200D02*
X154785714Y-75609580D01*
X154785714Y-75609580D02*
X154738095Y-75514342D01*
X154738095Y-75514342D02*
X154690476Y-75323866D01*
X154690476Y-75323866D02*
X154690476Y-75085771D01*
X154690476Y-75085771D02*
X154738095Y-74895295D01*
X154738095Y-74895295D02*
X154785714Y-74800057D01*
X154785714Y-74800057D02*
X154833333Y-74752438D01*
X154833333Y-74752438D02*
X154928571Y-74704819D01*
X151733333Y-58779580D02*
X151685714Y-58827200D01*
X151685714Y-58827200D02*
X151542857Y-58874819D01*
X151542857Y-58874819D02*
X151447619Y-58874819D01*
X151447619Y-58874819D02*
X151304762Y-58827200D01*
X151304762Y-58827200D02*
X151209524Y-58731961D01*
X151209524Y-58731961D02*
X151161905Y-58636723D01*
X151161905Y-58636723D02*
X151114286Y-58446247D01*
X151114286Y-58446247D02*
X151114286Y-58303390D01*
X151114286Y-58303390D02*
X151161905Y-58112914D01*
X151161905Y-58112914D02*
X151209524Y-58017676D01*
X151209524Y-58017676D02*
X151304762Y-57922438D01*
X151304762Y-57922438D02*
X151447619Y-57874819D01*
X151447619Y-57874819D02*
X151542857Y-57874819D01*
X151542857Y-57874819D02*
X151685714Y-57922438D01*
X151685714Y-57922438D02*
X151733333Y-57970057D01*
X152209524Y-58874819D02*
X152400000Y-58874819D01*
X152400000Y-58874819D02*
X152495238Y-58827200D01*
X152495238Y-58827200D02*
X152542857Y-58779580D01*
X152542857Y-58779580D02*
X152638095Y-58636723D01*
X152638095Y-58636723D02*
X152685714Y-58446247D01*
X152685714Y-58446247D02*
X152685714Y-58065295D01*
X152685714Y-58065295D02*
X152638095Y-57970057D01*
X152638095Y-57970057D02*
X152590476Y-57922438D01*
X152590476Y-57922438D02*
X152495238Y-57874819D01*
X152495238Y-57874819D02*
X152304762Y-57874819D01*
X152304762Y-57874819D02*
X152209524Y-57922438D01*
X152209524Y-57922438D02*
X152161905Y-57970057D01*
X152161905Y-57970057D02*
X152114286Y-58065295D01*
X152114286Y-58065295D02*
X152114286Y-58303390D01*
X152114286Y-58303390D02*
X152161905Y-58398628D01*
X152161905Y-58398628D02*
X152209524Y-58446247D01*
X152209524Y-58446247D02*
X152304762Y-58493866D01*
X152304762Y-58493866D02*
X152495238Y-58493866D01*
X152495238Y-58493866D02*
X152590476Y-58446247D01*
X152590476Y-58446247D02*
X152638095Y-58398628D01*
X152638095Y-58398628D02*
X152685714Y-58303390D01*
X151333333Y-75609580D02*
X151285714Y-75657200D01*
X151285714Y-75657200D02*
X151142857Y-75704819D01*
X151142857Y-75704819D02*
X151047619Y-75704819D01*
X151047619Y-75704819D02*
X150904762Y-75657200D01*
X150904762Y-75657200D02*
X150809524Y-75561961D01*
X150809524Y-75561961D02*
X150761905Y-75466723D01*
X150761905Y-75466723D02*
X150714286Y-75276247D01*
X150714286Y-75276247D02*
X150714286Y-75133390D01*
X150714286Y-75133390D02*
X150761905Y-74942914D01*
X150761905Y-74942914D02*
X150809524Y-74847676D01*
X150809524Y-74847676D02*
X150904762Y-74752438D01*
X150904762Y-74752438D02*
X151047619Y-74704819D01*
X151047619Y-74704819D02*
X151142857Y-74704819D01*
X151142857Y-74704819D02*
X151285714Y-74752438D01*
X151285714Y-74752438D02*
X151333333Y-74800057D01*
X151904762Y-75133390D02*
X151809524Y-75085771D01*
X151809524Y-75085771D02*
X151761905Y-75038152D01*
X151761905Y-75038152D02*
X151714286Y-74942914D01*
X151714286Y-74942914D02*
X151714286Y-74895295D01*
X151714286Y-74895295D02*
X151761905Y-74800057D01*
X151761905Y-74800057D02*
X151809524Y-74752438D01*
X151809524Y-74752438D02*
X151904762Y-74704819D01*
X151904762Y-74704819D02*
X152095238Y-74704819D01*
X152095238Y-74704819D02*
X152190476Y-74752438D01*
X152190476Y-74752438D02*
X152238095Y-74800057D01*
X152238095Y-74800057D02*
X152285714Y-74895295D01*
X152285714Y-74895295D02*
X152285714Y-74942914D01*
X152285714Y-74942914D02*
X152238095Y-75038152D01*
X152238095Y-75038152D02*
X152190476Y-75085771D01*
X152190476Y-75085771D02*
X152095238Y-75133390D01*
X152095238Y-75133390D02*
X151904762Y-75133390D01*
X151904762Y-75133390D02*
X151809524Y-75181009D01*
X151809524Y-75181009D02*
X151761905Y-75228628D01*
X151761905Y-75228628D02*
X151714286Y-75323866D01*
X151714286Y-75323866D02*
X151714286Y-75514342D01*
X151714286Y-75514342D02*
X151761905Y-75609580D01*
X151761905Y-75609580D02*
X151809524Y-75657200D01*
X151809524Y-75657200D02*
X151904762Y-75704819D01*
X151904762Y-75704819D02*
X152095238Y-75704819D01*
X152095238Y-75704819D02*
X152190476Y-75657200D01*
X152190476Y-75657200D02*
X152238095Y-75609580D01*
X152238095Y-75609580D02*
X152285714Y-75514342D01*
X152285714Y-75514342D02*
X152285714Y-75323866D01*
X152285714Y-75323866D02*
X152238095Y-75228628D01*
X152238095Y-75228628D02*
X152190476Y-75181009D01*
X152190476Y-75181009D02*
X152095238Y-75133390D01*
X149083333Y-75609580D02*
X149035714Y-75657200D01*
X149035714Y-75657200D02*
X148892857Y-75704819D01*
X148892857Y-75704819D02*
X148797619Y-75704819D01*
X148797619Y-75704819D02*
X148654762Y-75657200D01*
X148654762Y-75657200D02*
X148559524Y-75561961D01*
X148559524Y-75561961D02*
X148511905Y-75466723D01*
X148511905Y-75466723D02*
X148464286Y-75276247D01*
X148464286Y-75276247D02*
X148464286Y-75133390D01*
X148464286Y-75133390D02*
X148511905Y-74942914D01*
X148511905Y-74942914D02*
X148559524Y-74847676D01*
X148559524Y-74847676D02*
X148654762Y-74752438D01*
X148654762Y-74752438D02*
X148797619Y-74704819D01*
X148797619Y-74704819D02*
X148892857Y-74704819D01*
X148892857Y-74704819D02*
X149035714Y-74752438D01*
X149035714Y-74752438D02*
X149083333Y-74800057D01*
X149416667Y-74704819D02*
X150083333Y-74704819D01*
X150083333Y-74704819D02*
X149654762Y-75704819D01*
X142333333Y-75609580D02*
X142285714Y-75657200D01*
X142285714Y-75657200D02*
X142142857Y-75704819D01*
X142142857Y-75704819D02*
X142047619Y-75704819D01*
X142047619Y-75704819D02*
X141904762Y-75657200D01*
X141904762Y-75657200D02*
X141809524Y-75561961D01*
X141809524Y-75561961D02*
X141761905Y-75466723D01*
X141761905Y-75466723D02*
X141714286Y-75276247D01*
X141714286Y-75276247D02*
X141714286Y-75133390D01*
X141714286Y-75133390D02*
X141761905Y-74942914D01*
X141761905Y-74942914D02*
X141809524Y-74847676D01*
X141809524Y-74847676D02*
X141904762Y-74752438D01*
X141904762Y-74752438D02*
X142047619Y-74704819D01*
X142047619Y-74704819D02*
X142142857Y-74704819D01*
X142142857Y-74704819D02*
X142285714Y-74752438D01*
X142285714Y-74752438D02*
X142333333Y-74800057D01*
X143190476Y-74704819D02*
X143000000Y-74704819D01*
X143000000Y-74704819D02*
X142904762Y-74752438D01*
X142904762Y-74752438D02*
X142857143Y-74800057D01*
X142857143Y-74800057D02*
X142761905Y-74942914D01*
X142761905Y-74942914D02*
X142714286Y-75133390D01*
X142714286Y-75133390D02*
X142714286Y-75514342D01*
X142714286Y-75514342D02*
X142761905Y-75609580D01*
X142761905Y-75609580D02*
X142809524Y-75657200D01*
X142809524Y-75657200D02*
X142904762Y-75704819D01*
X142904762Y-75704819D02*
X143095238Y-75704819D01*
X143095238Y-75704819D02*
X143190476Y-75657200D01*
X143190476Y-75657200D02*
X143238095Y-75609580D01*
X143238095Y-75609580D02*
X143285714Y-75514342D01*
X143285714Y-75514342D02*
X143285714Y-75276247D01*
X143285714Y-75276247D02*
X143238095Y-75181009D01*
X143238095Y-75181009D02*
X143190476Y-75133390D01*
X143190476Y-75133390D02*
X143095238Y-75085771D01*
X143095238Y-75085771D02*
X142904762Y-75085771D01*
X142904762Y-75085771D02*
X142809524Y-75133390D01*
X142809524Y-75133390D02*
X142761905Y-75181009D01*
X142761905Y-75181009D02*
X142714286Y-75276247D01*
X153233333Y-62559580D02*
X153185714Y-62607200D01*
X153185714Y-62607200D02*
X153042857Y-62654819D01*
X153042857Y-62654819D02*
X152947619Y-62654819D01*
X152947619Y-62654819D02*
X152804762Y-62607200D01*
X152804762Y-62607200D02*
X152709524Y-62511961D01*
X152709524Y-62511961D02*
X152661905Y-62416723D01*
X152661905Y-62416723D02*
X152614286Y-62226247D01*
X152614286Y-62226247D02*
X152614286Y-62083390D01*
X152614286Y-62083390D02*
X152661905Y-61892914D01*
X152661905Y-61892914D02*
X152709524Y-61797676D01*
X152709524Y-61797676D02*
X152804762Y-61702438D01*
X152804762Y-61702438D02*
X152947619Y-61654819D01*
X152947619Y-61654819D02*
X153042857Y-61654819D01*
X153042857Y-61654819D02*
X153185714Y-61702438D01*
X153185714Y-61702438D02*
X153233333Y-61750057D01*
X154090476Y-61988152D02*
X154090476Y-62654819D01*
X153852381Y-61607200D02*
X153614286Y-62321485D01*
X153614286Y-62321485D02*
X154233333Y-62321485D01*
X137159580Y-64166666D02*
X137207200Y-64214285D01*
X137207200Y-64214285D02*
X137254819Y-64357142D01*
X137254819Y-64357142D02*
X137254819Y-64452380D01*
X137254819Y-64452380D02*
X137207200Y-64595237D01*
X137207200Y-64595237D02*
X137111961Y-64690475D01*
X137111961Y-64690475D02*
X137016723Y-64738094D01*
X137016723Y-64738094D02*
X136826247Y-64785713D01*
X136826247Y-64785713D02*
X136683390Y-64785713D01*
X136683390Y-64785713D02*
X136492914Y-64738094D01*
X136492914Y-64738094D02*
X136397676Y-64690475D01*
X136397676Y-64690475D02*
X136302438Y-64595237D01*
X136302438Y-64595237D02*
X136254819Y-64452380D01*
X136254819Y-64452380D02*
X136254819Y-64357142D01*
X136254819Y-64357142D02*
X136302438Y-64214285D01*
X136302438Y-64214285D02*
X136350057Y-64166666D01*
X136254819Y-63833332D02*
X136254819Y-63214285D01*
X136254819Y-63214285D02*
X136635771Y-63547618D01*
X136635771Y-63547618D02*
X136635771Y-63404761D01*
X136635771Y-63404761D02*
X136683390Y-63309523D01*
X136683390Y-63309523D02*
X136731009Y-63261904D01*
X136731009Y-63261904D02*
X136826247Y-63214285D01*
X136826247Y-63214285D02*
X137064342Y-63214285D01*
X137064342Y-63214285D02*
X137159580Y-63261904D01*
X137159580Y-63261904D02*
X137207200Y-63309523D01*
X137207200Y-63309523D02*
X137254819Y-63404761D01*
X137254819Y-63404761D02*
X137254819Y-63690475D01*
X137254819Y-63690475D02*
X137207200Y-63785713D01*
X137207200Y-63785713D02*
X137159580Y-63833332D01*
X139083333Y-58109580D02*
X139035714Y-58157200D01*
X139035714Y-58157200D02*
X138892857Y-58204819D01*
X138892857Y-58204819D02*
X138797619Y-58204819D01*
X138797619Y-58204819D02*
X138654762Y-58157200D01*
X138654762Y-58157200D02*
X138559524Y-58061961D01*
X138559524Y-58061961D02*
X138511905Y-57966723D01*
X138511905Y-57966723D02*
X138464286Y-57776247D01*
X138464286Y-57776247D02*
X138464286Y-57633390D01*
X138464286Y-57633390D02*
X138511905Y-57442914D01*
X138511905Y-57442914D02*
X138559524Y-57347676D01*
X138559524Y-57347676D02*
X138654762Y-57252438D01*
X138654762Y-57252438D02*
X138797619Y-57204819D01*
X138797619Y-57204819D02*
X138892857Y-57204819D01*
X138892857Y-57204819D02*
X139035714Y-57252438D01*
X139035714Y-57252438D02*
X139083333Y-57300057D01*
X140035714Y-58204819D02*
X139464286Y-58204819D01*
X139750000Y-58204819D02*
X139750000Y-57204819D01*
X139750000Y-57204819D02*
X139654762Y-57347676D01*
X139654762Y-57347676D02*
X139559524Y-57442914D01*
X139559524Y-57442914D02*
X139464286Y-57490533D01*
D13*
X94104318Y-67773332D02*
X95011461Y-67773332D01*
X95011461Y-67773332D02*
X95192889Y-67833809D01*
X95192889Y-67833809D02*
X95313842Y-67954761D01*
X95313842Y-67954761D02*
X95374318Y-68136190D01*
X95374318Y-68136190D02*
X95374318Y-68257142D01*
X94225270Y-67229047D02*
X94164794Y-67168571D01*
X94164794Y-67168571D02*
X94104318Y-67047618D01*
X94104318Y-67047618D02*
X94104318Y-66745237D01*
X94104318Y-66745237D02*
X94164794Y-66624285D01*
X94164794Y-66624285D02*
X94225270Y-66563809D01*
X94225270Y-66563809D02*
X94346222Y-66503332D01*
X94346222Y-66503332D02*
X94467175Y-66503332D01*
X94467175Y-66503332D02*
X94648603Y-66563809D01*
X94648603Y-66563809D02*
X95374318Y-67289523D01*
X95374318Y-67289523D02*
X95374318Y-66503332D01*
D14*
%TO.C,C14*%
X157238748Y-63015000D02*
X157761252Y-63015000D01*
X157238748Y-64485000D02*
X157761252Y-64485000D01*
D15*
%TO.C,J1*%
X166901599Y-60299600D02*
X164792700Y-60299600D01*
X170377800Y-73685400D02*
X179042100Y-73685400D01*
X164792700Y-73685400D02*
X166901599Y-73685400D01*
X164792700Y-60299600D02*
X164792700Y-73685400D01*
X179042100Y-60299600D02*
X170377800Y-60299600D01*
X179042100Y-73685400D02*
X179042100Y-60299600D01*
D16*
X163770700Y-70492500D02*
G75*
G02*
X163008700Y-70492500I-381000J0D01*
G01*
X163008700Y-70492500D02*
G75*
G02*
X163770700Y-70492500I381000J0D01*
G01*
D14*
%TO.C,U1*%
X142665000Y-69685000D02*
X142665000Y-70335000D01*
X149885000Y-63115000D02*
X149235000Y-63115000D01*
X149885000Y-63765000D02*
X149885000Y-63115000D01*
X149885000Y-70335000D02*
X149235000Y-70335000D01*
X149885000Y-69685000D02*
X149885000Y-70335000D01*
X142665000Y-63115000D02*
X143315000Y-63115000D01*
X142665000Y-63765000D02*
X142665000Y-63115000D01*
D17*
%TO.C,G\u002A\u002A\u002A*%
G36*
X109049423Y-71801808D02*
G01*
X109277285Y-71895865D01*
X109482157Y-72037037D01*
X109581485Y-72121551D01*
X109626969Y-72174925D01*
X109627823Y-72215326D01*
X109594856Y-72259162D01*
X109524897Y-72316632D01*
X109478372Y-72333596D01*
X109410362Y-72351026D01*
X109315449Y-72392986D01*
X109314572Y-72393444D01*
X109199878Y-72436783D01*
X109100000Y-72452849D01*
X109014772Y-72466584D01*
X108882276Y-72503242D01*
X108729244Y-72555298D01*
X108708940Y-72562916D01*
X108595966Y-72604452D01*
X108515460Y-72638780D01*
X108465862Y-72678246D01*
X108445612Y-72735199D01*
X108453150Y-72821984D01*
X108486914Y-72950950D01*
X108545346Y-73134444D01*
X108611218Y-73336253D01*
X108760000Y-73795899D01*
X109040000Y-73785345D01*
X109350135Y-73771187D01*
X109585624Y-73754578D01*
X109751803Y-73734823D01*
X109854005Y-73711229D01*
X109897568Y-73683103D01*
X109900000Y-73673510D01*
X109918556Y-73605003D01*
X109964659Y-73503780D01*
X109980000Y-73475394D01*
X110031176Y-73370424D01*
X110058559Y-73287547D01*
X110060000Y-73273860D01*
X110088862Y-73221454D01*
X110112896Y-73214984D01*
X110173738Y-73196894D01*
X110279785Y-73149742D01*
X110393125Y-73091662D01*
X110590654Y-73008434D01*
X110756364Y-72993750D01*
X110899800Y-73047567D01*
X110954178Y-73089238D01*
X111022858Y-73117958D01*
X111153819Y-73146691D01*
X111329371Y-73173309D01*
X111531825Y-73195685D01*
X111743491Y-73211693D01*
X111946677Y-73219205D01*
X112034917Y-73219185D01*
X112181876Y-73241083D01*
X112292977Y-73320096D01*
X112376284Y-73448067D01*
X112423827Y-73565835D01*
X112422564Y-73647840D01*
X112412017Y-73671387D01*
X112387080Y-73730880D01*
X112341718Y-73853475D01*
X112280531Y-74026164D01*
X112208121Y-74235943D01*
X112129086Y-74469809D01*
X112120608Y-74495180D01*
X112034376Y-74755445D01*
X111971329Y-74952938D01*
X111928553Y-75100627D01*
X111903137Y-75211483D01*
X111892167Y-75298475D01*
X111892730Y-75374572D01*
X111901913Y-75452746D01*
X111903381Y-75462398D01*
X111938912Y-75618251D01*
X111995059Y-75784529D01*
X112062713Y-75941029D01*
X112132765Y-76067550D01*
X112196104Y-76143890D01*
X112215857Y-76155319D01*
X112303370Y-76198029D01*
X112345781Y-76225698D01*
X112398986Y-76247801D01*
X112454017Y-76219032D01*
X112508670Y-76160999D01*
X112565663Y-76102303D01*
X112626424Y-76068017D01*
X112714193Y-76051269D01*
X112852209Y-76045190D01*
X112902888Y-76044466D01*
X113074410Y-76048539D01*
X113215031Y-76070966D01*
X113346949Y-76120266D01*
X113492361Y-76204958D01*
X113673463Y-76333561D01*
X113691842Y-76347259D01*
X113812220Y-76444928D01*
X113872309Y-76516197D01*
X113881957Y-76573213D01*
X113880215Y-76579603D01*
X113879187Y-76652433D01*
X113898372Y-76679434D01*
X113927030Y-76733700D01*
X113939941Y-76830317D01*
X113940000Y-76837370D01*
X113947775Y-76917338D01*
X113982805Y-76975227D01*
X114062646Y-77031553D01*
X114143691Y-77075384D01*
X114260358Y-77133071D01*
X114348940Y-77171515D01*
X114382141Y-77181230D01*
X114412102Y-77146254D01*
X114451295Y-77056584D01*
X114476116Y-76981515D01*
X114537056Y-76824404D01*
X114621890Y-76660475D01*
X114659587Y-76600915D01*
X114740778Y-76493324D01*
X114808739Y-76439038D01*
X114888449Y-76420965D01*
X114923908Y-76420031D01*
X115102894Y-76449417D01*
X115247607Y-76530098D01*
X115332402Y-76639676D01*
X115354094Y-76708831D01*
X115352630Y-76789288D01*
X115325307Y-76904002D01*
X115287241Y-77023280D01*
X115194103Y-77301419D01*
X115277051Y-77302033D01*
X115367746Y-77316020D01*
X115406078Y-77332080D01*
X115450108Y-77401565D01*
X115474881Y-77527730D01*
X115479185Y-77689193D01*
X115461811Y-77864574D01*
X115441772Y-77962460D01*
X115381720Y-78202839D01*
X115524410Y-78330347D01*
X115614868Y-78423922D01*
X115646446Y-78496789D01*
X115640854Y-78540679D01*
X115636549Y-78607543D01*
X115675067Y-78623501D01*
X115724916Y-78654964D01*
X115801919Y-78739002D01*
X115895759Y-78860090D01*
X115996118Y-79002701D01*
X116092679Y-79151311D01*
X116175126Y-79290392D01*
X116233141Y-79404421D01*
X116256407Y-79477870D01*
X116253034Y-79493263D01*
X116191064Y-79536341D01*
X116084168Y-79583456D01*
X115954081Y-79628243D01*
X115822536Y-79664337D01*
X115711267Y-79685372D01*
X115642007Y-79684981D01*
X115630184Y-79675693D01*
X115593071Y-79608227D01*
X115546845Y-79545951D01*
X115520722Y-79517727D01*
X115490015Y-79500857D01*
X115443095Y-79497319D01*
X115368336Y-79509096D01*
X115254110Y-79538166D01*
X115088791Y-79586511D01*
X114860752Y-79656111D01*
X114811833Y-79671146D01*
X114143667Y-79876539D01*
X114200349Y-79986323D01*
X114234873Y-80068760D01*
X114223132Y-80119712D01*
X114188515Y-80153635D01*
X114119110Y-80191468D01*
X113995876Y-80240671D01*
X113842320Y-80292100D01*
X113800000Y-80304804D01*
X113633502Y-80354275D01*
X113418747Y-80419154D01*
X113183820Y-80490909D01*
X112963287Y-80558994D01*
X112446574Y-80719542D01*
X112263466Y-80623020D01*
X112117263Y-80540616D01*
X111957389Y-80442832D01*
X111891814Y-80400104D01*
X111747827Y-80317651D01*
X111571452Y-80235785D01*
X111443798Y-80187228D01*
X111295660Y-80131807D01*
X111166730Y-80073072D01*
X111092163Y-80028675D01*
X111009130Y-79975194D01*
X110919011Y-79932554D01*
X110847447Y-79911034D01*
X110820000Y-79919584D01*
X110850640Y-79950780D01*
X110927115Y-80004881D01*
X110957114Y-80023923D01*
X111094228Y-80108798D01*
X110997750Y-80392901D01*
X110944005Y-80539965D01*
X110892623Y-80661763D01*
X110853990Y-80733862D01*
X110851411Y-80737178D01*
X110803991Y-80771212D01*
X110708538Y-80826104D01*
X110584876Y-80891845D01*
X110452832Y-80958428D01*
X110332232Y-81015843D01*
X110242899Y-81054083D01*
X110205006Y-81063499D01*
X110167192Y-81051111D01*
X110069368Y-81020842D01*
X109928159Y-80977805D01*
X109822104Y-80945745D01*
X109645111Y-80897170D01*
X109501930Y-80867087D01*
X109409448Y-80858707D01*
X109388291Y-80863183D01*
X109275512Y-80881467D01*
X109136393Y-80827286D01*
X108981215Y-80707906D01*
X108892461Y-80629025D01*
X108822448Y-80585545D01*
X108743159Y-80569110D01*
X108626579Y-80571368D01*
X108542575Y-80577109D01*
X108401129Y-80582679D01*
X108286945Y-80570805D01*
X108183068Y-80533163D01*
X108072543Y-80461430D01*
X107938419Y-80347281D01*
X107790000Y-80207625D01*
X107682671Y-80097066D01*
X107997565Y-80097066D01*
X108016806Y-80143411D01*
X108085782Y-80218316D01*
X108160000Y-80287337D01*
X108272844Y-80384901D01*
X108354854Y-80437302D01*
X108431830Y-80455970D01*
X108529571Y-80452333D01*
X108531975Y-80452105D01*
X108641051Y-80438435D01*
X108710883Y-80423525D01*
X108721113Y-80418548D01*
X108753190Y-80336009D01*
X108714578Y-80230975D01*
X108608569Y-80111436D01*
X108586666Y-80092418D01*
X108477804Y-80008277D01*
X108404199Y-79974380D01*
X108346505Y-79982405D01*
X108339296Y-79986024D01*
X108237585Y-80019069D01*
X108172629Y-80026323D01*
X108071777Y-80043566D01*
X108020000Y-80066569D01*
X107997565Y-80097066D01*
X107682671Y-80097066D01*
X107671311Y-80085364D01*
X107604835Y-79983505D01*
X107586839Y-79887672D01*
X107672284Y-79887672D01*
X107675604Y-79962817D01*
X107699376Y-80004926D01*
X107741377Y-80039306D01*
X107793509Y-80028527D01*
X107864499Y-79982437D01*
X107940928Y-79924148D01*
X107979034Y-79887679D01*
X107980000Y-79885051D01*
X107959858Y-79834340D01*
X107911499Y-79751950D01*
X107853016Y-79665198D01*
X107802505Y-79601401D01*
X107781247Y-79585015D01*
X107753290Y-79619915D01*
X107717462Y-79708447D01*
X107700075Y-79765028D01*
X107672284Y-79887672D01*
X107586839Y-79887672D01*
X107584888Y-79877280D01*
X107605789Y-79741922D01*
X107649020Y-79593102D01*
X107718040Y-79373798D01*
X107554448Y-79228394D01*
X107489942Y-79158714D01*
X109745847Y-79158714D01*
X109764621Y-79184637D01*
X109840774Y-79249210D01*
X109945965Y-79323962D01*
X110058861Y-79395627D01*
X110158128Y-79450938D01*
X110222434Y-79476631D01*
X110233108Y-79475966D01*
X110220967Y-79445639D01*
X110155796Y-79386978D01*
X110073108Y-79327366D01*
X109947717Y-79248068D01*
X109843046Y-79189673D01*
X109771591Y-79157961D01*
X109745847Y-79158714D01*
X107489942Y-79158714D01*
X107442341Y-79107295D01*
X107335256Y-78955492D01*
X107247099Y-78796956D01*
X107191775Y-78655662D01*
X107180000Y-78582845D01*
X107198692Y-78518381D01*
X107246421Y-78415954D01*
X107310668Y-78297371D01*
X107367109Y-78203972D01*
X107980000Y-78203972D01*
X108015257Y-78240130D01*
X108108305Y-78291214D01*
X108240060Y-78349980D01*
X108391437Y-78409182D01*
X108543350Y-78461574D01*
X108676716Y-78499910D01*
X108772448Y-78516947D01*
X108800000Y-78515279D01*
X108870210Y-78493077D01*
X108891902Y-78483076D01*
X108881979Y-78444873D01*
X108844311Y-78355446D01*
X108793547Y-78247630D01*
X108734591Y-78142152D01*
X108887205Y-78142152D01*
X108935379Y-78293342D01*
X108945014Y-78312842D01*
X108999639Y-78410190D01*
X109049079Y-78451207D01*
X109121812Y-78452247D01*
X109172509Y-78443510D01*
X109276618Y-78420706D01*
X109343979Y-78400063D01*
X109349695Y-78397153D01*
X109373647Y-78340575D01*
X109359407Y-78244533D01*
X109327262Y-78158848D01*
X109940000Y-78158848D01*
X109972365Y-78211154D01*
X110053483Y-78274883D01*
X110090000Y-78296386D01*
X110202972Y-78354892D01*
X110266965Y-78377019D01*
X110301858Y-78367176D01*
X110317647Y-78346871D01*
X110299211Y-78308208D01*
X110278813Y-78291125D01*
X110640000Y-78291125D01*
X110736972Y-78397219D01*
X110803148Y-78466971D01*
X110841359Y-78502254D01*
X110843701Y-78503312D01*
X110883947Y-78491093D01*
X110916728Y-78478994D01*
X110971250Y-78431730D01*
X110971939Y-78383686D01*
X111989753Y-78383686D01*
X112000035Y-78416047D01*
X112084026Y-78475066D01*
X112130000Y-78500480D01*
X112255545Y-78556679D01*
X112330867Y-78562797D01*
X112367067Y-78520840D01*
X112339549Y-78488491D01*
X112255928Y-78445647D01*
X112179567Y-78417036D01*
X112050492Y-78382508D01*
X111989753Y-78383686D01*
X110971939Y-78383686D01*
X110972060Y-78375272D01*
X110920811Y-78343155D01*
X110910000Y-78342513D01*
X110816308Y-78332280D01*
X110740000Y-78316545D01*
X110640000Y-78291125D01*
X110278813Y-78291125D01*
X110227729Y-78248343D01*
X110162885Y-78206651D01*
X110043033Y-78138492D01*
X109975996Y-78109462D01*
X109946685Y-78116323D01*
X109940010Y-78155839D01*
X109940000Y-78158848D01*
X109327262Y-78158848D01*
X109317585Y-78133053D01*
X109258787Y-78030163D01*
X109193620Y-77959891D01*
X109149187Y-77942976D01*
X108994469Y-77966316D01*
X108907022Y-78032926D01*
X108887205Y-78142152D01*
X108734591Y-78142152D01*
X108716444Y-78109686D01*
X108654947Y-78044782D01*
X108621645Y-78039509D01*
X108553331Y-78054385D01*
X108431500Y-78077513D01*
X108281567Y-78104084D01*
X108270000Y-78106064D01*
X108116889Y-78138458D01*
X108015512Y-78172952D01*
X107980000Y-78203972D01*
X107367109Y-78203972D01*
X107378913Y-78184438D01*
X107438634Y-78098962D01*
X107477312Y-78062748D01*
X107478693Y-78062618D01*
X107524611Y-78076209D01*
X107616913Y-78110405D01*
X107660850Y-78127728D01*
X107764130Y-78162710D01*
X107833277Y-78174286D01*
X107845380Y-78170741D01*
X107833194Y-78134828D01*
X107768453Y-78076781D01*
X107670666Y-78009255D01*
X107559345Y-77944904D01*
X107454000Y-77896384D01*
X107407071Y-77882334D01*
X109340000Y-77882334D01*
X109360000Y-77902366D01*
X109380000Y-77882334D01*
X109360000Y-77862302D01*
X109340000Y-77882334D01*
X107407071Y-77882334D01*
X107395277Y-77878803D01*
X107295752Y-77848482D01*
X107260459Y-77811794D01*
X107296275Y-77777237D01*
X107309201Y-77772427D01*
X107339250Y-77729115D01*
X107317996Y-77648077D01*
X107317108Y-77646608D01*
X107433592Y-77646608D01*
X107440000Y-77661987D01*
X107492988Y-77700554D01*
X107504721Y-77702050D01*
X107526407Y-77677366D01*
X107520000Y-77661987D01*
X107467011Y-77623420D01*
X107455278Y-77621924D01*
X107433592Y-77646608D01*
X107317108Y-77646608D01*
X107254889Y-77543711D01*
X107159382Y-77430419D01*
X107040928Y-77322600D01*
X106988334Y-77283604D01*
X106753433Y-77120388D01*
X106622534Y-77026707D01*
X108820071Y-77026707D01*
X108855571Y-77122748D01*
X108943921Y-77200165D01*
X109058125Y-77245304D01*
X109171187Y-77244513D01*
X109213935Y-77225895D01*
X109260380Y-77163744D01*
X109241395Y-77094740D01*
X109167315Y-77037757D01*
X109099569Y-77016980D01*
X108983618Y-76991248D01*
X108893343Y-76963390D01*
X108890000Y-76962006D01*
X108836859Y-76955548D01*
X108820333Y-77010540D01*
X108820071Y-77026707D01*
X106622534Y-77026707D01*
X106580099Y-76996337D01*
X106464002Y-76905189D01*
X106400810Y-76840680D01*
X106386191Y-76796548D01*
X106415815Y-76766527D01*
X106485350Y-76744356D01*
X106590465Y-76723772D01*
X106600000Y-76722056D01*
X106713576Y-76694573D01*
X106795284Y-76662342D01*
X106806570Y-76654770D01*
X106881079Y-76627319D01*
X106946570Y-76624523D01*
X107112600Y-76630915D01*
X107212206Y-76612135D01*
X107255840Y-76565186D01*
X107259999Y-76534621D01*
X107229990Y-76441005D01*
X107189999Y-76394401D01*
X107141811Y-76348136D01*
X107159175Y-76310615D01*
X107190000Y-76285409D01*
X107229305Y-76235721D01*
X107251153Y-76150800D01*
X107259520Y-76011590D01*
X107260000Y-75949779D01*
X107266716Y-75775248D01*
X107288380Y-75667310D01*
X107320000Y-75618769D01*
X107356536Y-75555953D01*
X107375688Y-75435837D01*
X107380000Y-75293359D01*
X107380000Y-75017823D01*
X107500000Y-75017823D01*
X107585203Y-75026575D01*
X107622560Y-75047643D01*
X107622583Y-75047870D01*
X107627119Y-75101727D01*
X107636042Y-75208355D01*
X107643548Y-75298265D01*
X107667553Y-75466017D01*
X107705651Y-75599377D01*
X107751830Y-75681288D01*
X107784763Y-75698896D01*
X107803443Y-75662569D01*
X107819684Y-75568495D01*
X107828003Y-75468533D01*
X107836774Y-75339009D01*
X107853118Y-75270280D01*
X107888070Y-75243088D01*
X107952663Y-75238177D01*
X107960000Y-75238170D01*
X108021202Y-75241089D01*
X108059235Y-75260999D01*
X108082696Y-75314632D01*
X108100180Y-75418719D01*
X108114392Y-75538643D01*
X108132736Y-75684693D01*
X108149813Y-75796310D01*
X108162369Y-75852653D01*
X108163832Y-75855248D01*
X108196213Y-75840711D01*
X108251471Y-75779648D01*
X108312575Y-75694976D01*
X108362493Y-75609613D01*
X108381488Y-75562375D01*
X108440246Y-75489299D01*
X108531241Y-75454949D01*
X108660825Y-75419260D01*
X108729129Y-75367026D01*
X108745826Y-75280055D01*
X108720587Y-75140157D01*
X108713458Y-75112239D01*
X108685410Y-74988198D01*
X108673083Y-74898328D01*
X108676576Y-74867677D01*
X108675255Y-74821221D01*
X108642759Y-74741776D01*
X108568346Y-74587995D01*
X108500251Y-74425133D01*
X108445531Y-74272975D01*
X108411242Y-74151309D01*
X108408174Y-74119097D01*
X111084808Y-74119097D01*
X111106773Y-74218802D01*
X111136031Y-74300834D01*
X111164288Y-74328785D01*
X111219157Y-74311264D01*
X111289645Y-74275825D01*
X111414081Y-74199378D01*
X111485093Y-74110010D01*
X111521120Y-74006006D01*
X111532980Y-73949562D01*
X111524178Y-73914673D01*
X111480179Y-73895346D01*
X111386445Y-73885586D01*
X111228442Y-73879397D01*
X111212877Y-73878887D01*
X111137669Y-73910721D01*
X111092771Y-73997865D01*
X111084808Y-74119097D01*
X108408174Y-74119097D01*
X108404443Y-74079923D01*
X108405482Y-74076478D01*
X108450890Y-74036892D01*
X108556025Y-74018495D01*
X108637612Y-74016246D01*
X108788285Y-74009927D01*
X108862965Y-73989241D01*
X108864791Y-73951594D01*
X108796903Y-73894392D01*
X108790322Y-73890045D01*
X108742468Y-73850052D01*
X108699635Y-73789686D01*
X108656083Y-73695826D01*
X108606073Y-73555347D01*
X108543866Y-73355127D01*
X108517426Y-73266052D01*
X108354852Y-72714195D01*
X108137426Y-72727623D01*
X107908342Y-72770527D01*
X107752877Y-72837797D01*
X107621526Y-72897245D01*
X107490642Y-72931359D01*
X107450877Y-72934542D01*
X107346401Y-72946024D01*
X107276905Y-72973864D01*
X107274688Y-72975919D01*
X107213191Y-72998903D01*
X107147647Y-72980996D01*
X107112601Y-72936013D01*
X107115355Y-72912186D01*
X107135156Y-72840300D01*
X107158372Y-72729898D01*
X107162558Y-72707024D01*
X107233918Y-72510542D01*
X107372635Y-72311470D01*
X107567589Y-72122773D01*
X107803298Y-71959941D01*
X107954503Y-71875324D01*
X108073349Y-71821473D01*
X108189667Y-71789567D01*
X108333291Y-71770784D01*
X108480180Y-71759785D01*
X108790019Y-71758190D01*
X109049423Y-71801808D01*
G37*
D14*
%TO.C,R8*%
X146265000Y-73227064D02*
X146265000Y-72772936D01*
X147735000Y-73227064D02*
X147735000Y-72772936D01*
%TO.C,R7*%
X144015000Y-73227064D02*
X144015000Y-72772936D01*
X145485000Y-73227064D02*
X145485000Y-72772936D01*
D16*
%TO.C,SW2*%
X164733100Y-54825000D02*
G75*
G02*
X163971100Y-54825000I-381000J0D01*
G01*
X163971100Y-54825000D02*
G75*
G02*
X164733100Y-54825000I381000J0D01*
G01*
D15*
X162574100Y-51921200D02*
X157925900Y-51921200D01*
X157925900Y-53363341D02*
X157925900Y-54136659D01*
X157925900Y-55578800D02*
X162574100Y-55578800D01*
X162574100Y-54136659D02*
X162574100Y-53363341D01*
D14*
%TO.C,R6*%
X161272936Y-58265000D02*
X161727064Y-58265000D01*
X161272936Y-59735000D02*
X161727064Y-59735000D01*
%TO.C,C2*%
X144235000Y-60561252D02*
X144235000Y-60038748D01*
X142765000Y-60561252D02*
X142765000Y-60038748D01*
%TO.C,C5*%
X139461252Y-62335000D02*
X138938748Y-62335000D01*
X139461252Y-60865000D02*
X138938748Y-60865000D01*
D18*
%TO.C,U4*%
X120795000Y-78650000D02*
G75*
G02*
X120595000Y-78650000I-100000J0D01*
G01*
X120595000Y-78650000D02*
G75*
G02*
X120795000Y-78650000I100000J0D01*
G01*
D19*
X120150000Y-75570000D02*
X120150000Y-73230000D01*
X125050000Y-75570000D02*
X125050000Y-73230000D01*
D16*
%TO.C,SW1*%
X136283100Y-76275000D02*
G75*
G02*
X135521100Y-76275000I-381000J0D01*
G01*
X135521100Y-76275000D02*
G75*
G02*
X136283100Y-76275000I381000J0D01*
G01*
D15*
X134124100Y-73371200D02*
X129475900Y-73371200D01*
X129475900Y-74813341D02*
X129475900Y-75586659D01*
X129475900Y-77028800D02*
X134124100Y-77028800D01*
X134124100Y-75586659D02*
X134124100Y-74813341D01*
D14*
%TO.C,Y1*%
X155440000Y-65290000D02*
X155440000Y-68710000D01*
X155440000Y-68710000D02*
X159560000Y-68710000D01*
%TO.C,U2*%
X115870000Y-51690000D02*
X115630000Y-51360000D01*
X116110000Y-51360000D01*
X115870000Y-51690000D01*
G36*
X115870000Y-51690000D02*
G01*
X115630000Y-51360000D01*
X116110000Y-51360000D01*
X115870000Y-51690000D01*
G37*
X120910000Y-58410000D02*
X120910000Y-57150000D01*
X120910000Y-51590000D02*
X120910000Y-52850000D01*
X117150000Y-58410000D02*
X120910000Y-58410000D01*
X117150000Y-51590000D02*
X120910000Y-51590000D01*
%TO.C,R5*%
X153272936Y-65265000D02*
X153727064Y-65265000D01*
X153272936Y-66735000D02*
X153727064Y-66735000D01*
%TO.C,R4*%
X139227064Y-77985000D02*
X138772936Y-77985000D01*
X139227064Y-76515000D02*
X138772936Y-76515000D01*
%TO.C,R3*%
X139227064Y-74485000D02*
X138772936Y-74485000D01*
X139227064Y-73015000D02*
X138772936Y-73015000D01*
%TO.C,R2*%
X136472936Y-65465000D02*
X136927064Y-65465000D01*
X136472936Y-66935000D02*
X136927064Y-66935000D01*
%TO.C,R1*%
X136472936Y-67865000D02*
X136927064Y-67865000D01*
X136472936Y-69335000D02*
X136927064Y-69335000D01*
%TO.C,C17*%
X117265000Y-72761252D02*
X117265000Y-72238748D01*
X118735000Y-72761252D02*
X118735000Y-72238748D01*
%TO.C,C16*%
X125988748Y-54265000D02*
X126511252Y-54265000D01*
X125988748Y-55735000D02*
X126511252Y-55735000D01*
%TO.C,C15*%
X111261252Y-55735000D02*
X110738748Y-55735000D01*
X111261252Y-54265000D02*
X110738748Y-54265000D01*
%TO.C,C13*%
X155815000Y-69290000D02*
X155815000Y-71210000D01*
X155815000Y-71210000D02*
X158500000Y-71210000D01*
X158500000Y-69290000D02*
X155815000Y-69290000D01*
%TO.C,C12*%
X147765000Y-60561252D02*
X147765000Y-60038748D01*
X149235000Y-60561252D02*
X149235000Y-60038748D01*
%TO.C,C11*%
X145265000Y-60561252D02*
X145265000Y-60038748D01*
X146735000Y-60561252D02*
X146735000Y-60038748D01*
%TO.C,C10*%
X154485000Y-72738748D02*
X154485000Y-73261252D01*
X153015000Y-72738748D02*
X153015000Y-73261252D01*
%TO.C,C9*%
X151638748Y-59365000D02*
X152161252Y-59365000D01*
X151638748Y-60835000D02*
X152161252Y-60835000D01*
%TO.C,C8*%
X152235000Y-72738748D02*
X152235000Y-73261252D01*
X150765000Y-72738748D02*
X150765000Y-73261252D01*
%TO.C,C7*%
X149985000Y-72738748D02*
X149985000Y-73261252D01*
X148515000Y-72738748D02*
X148515000Y-73261252D01*
%TO.C,C6*%
X143235000Y-72738748D02*
X143235000Y-73261252D01*
X141765000Y-72738748D02*
X141765000Y-73261252D01*
%TO.C,C4*%
X153238748Y-63065000D02*
X153761252Y-63065000D01*
X153238748Y-64535000D02*
X153761252Y-64535000D01*
%TO.C,C3*%
X139461252Y-64735000D02*
X138938748Y-64735000D01*
X139461252Y-63265000D02*
X138938748Y-63265000D01*
%TO.C,C1*%
X139511252Y-59985000D02*
X138988748Y-59985000D01*
X139511252Y-58515000D02*
X138988748Y-58515000D01*
D18*
%TO.C,J2*%
X99735000Y-61350000D02*
X84475000Y-61350000D01*
X84475000Y-61350000D02*
X84475000Y-73350000D01*
X84475000Y-73350000D02*
X99735000Y-73350000D01*
D20*
X105575000Y-63850000D02*
X105575000Y-63850000D01*
X105675000Y-63850000D02*
X105675000Y-63850000D01*
X105675000Y-63850000D02*
G75*
G02*
X105575000Y-63850000I-50000J0D01*
G01*
X105575000Y-63850000D02*
G75*
G02*
X105675000Y-63850000I50000J0D01*
G01*
%TD*%
M02*
